<?xml version="1.0" encoding="iso-8859-1"?>
<!-- Generator: Adobe Illustrator 21.1.0, SVG Export Plug-In . SVG Version: 6.00 Build 0)  -->
<svg version="1.1" id="Layer_1" xmlns="http://www.w3.org/2000/svg" xmlns:xlink="http://www.w3.org/1999/xlink" x="0px" y="0px"
	 viewBox="0 0 30 30" style="enable-background:new 0 0 30 30;" xml:space="preserve">
<path d="M8,8c0,4.682,3.894,5.148,5.295,4.926s5.062-0.803,5.062-0.803l6.066,5.472l-11.68,8.958L3.606,17h-1.59L2,5h10.5
	c0,0-2.06,0.717-2.742,0.968C9.075,6.218,8,6.542,8,8z"/>
<circle cx="23" cy="19" r="2"/>
<path d="M15,8.5c0,1.381-1.119,2.5-2.5,2.5S10,9.881,10,8.5V8h3.146L15,8.5z"/>
<circle cx="19" cy="7" r="2"/>
<circle cx="20" cy="21" r="2"/>
<circle cx="17" cy="23" r="2"/>
<circle cx="14" cy="25" r="2"/>
<path d="M29,19V7l-4,1l-5.144-2.808l-1.378-0.123L10,8l2.753,2.987L19,9.996c0,0,5.25,4.699,6.167,5.616
	c0.88,0.88,1.75,1.543,1.819,3.388H29z"/>
</svg>
