<?xml version="1.0" encoding="iso-8859-1"?>
<!-- Generator: Adobe Illustrator 21.1.0, SVG Export Plug-In . SVG Version: 6.00 Build 0)  -->
<svg version="1.1" id="Layer_1" xmlns="http://www.w3.org/2000/svg" xmlns:xlink="http://www.w3.org/1999/xlink" x="0px" y="0px"
	 viewBox="0 0 30 30" style="enable-background:new 0 0 30 30;" xml:space="preserve">
<path d="M14.5,23.084L13.361,21h1.613h1.665L15.5,23.084L16.695,27H27c0-7-8-5-9-8v-2c0.45-0.223,1.737-1.755,1.872-2.952
	c0.354-0.027,0.91-0.352,1.074-1.635c0.088-0.689-0.262-1.076-0.474-1.198c0,0,0.528-1.003,0.528-2.214c0-2.428-0.953-4.5-3-4.5
	c0,0-0.711-1.5-3-1.5c-4.242,0-6,2.721-6,6c0,1.104,0.528,2.214,0.528,2.214c-0.212,0.122-0.562,0.51-0.474,1.198
	c0.164,1.283,0.72,1.608,1.074,1.635C10.263,15.245,11.55,16.777,12,17v2c-1,3-9,1-9,8h10.305L14.5,23.084z"/>
<path d="M19.5,21H17v-2h0.889c0.38,0,0.728,0.216,0.896,0.556L19.5,21z"/>
<path d="M10.5,21H13v-2h-0.889c-0.38,0-0.728,0.216-0.896,0.556L10.5,21z"/>
</svg>
