<?xml version="1.0" encoding="iso-8859-1"?>
<!-- Generator: Adobe Illustrator 21.1.0, SVG Export Plug-In . SVG Version: 6.00 Build 0)  -->
<svg version="1.1" id="Layer_1" xmlns="http://www.w3.org/2000/svg" xmlns:xlink="http://www.w3.org/1999/xlink" x="0px" y="0px"
	 viewBox="0 0 30 30" style="enable-background:new 0 0 30 30;" xml:space="preserve">
<path d="M14.172,10.172c0,0-9.447,9.447-10,10c-1.562,1.562-1.562,4.095,0,5.657c1.562,1.562,4.095,1.562,5.657,0
	c0.553-0.553,9.5-9.5,9.5-9.5L14.172,10.172z M7,25c-1.105,0-2-0.895-2-2c0-1.105,0.895-2,2-2s2,0.895,2,2C9,24.105,8.105,25,7,25z"
	/>
<path d="M22,13l-4-1l-1-4l4.631-4.631c-2.66-0.846-5.687-0.22-7.797,1.89c-3.012,3.012-2.048,6.931,0.964,9.943
	c3.012,3.012,6.931,3.976,9.943,0.964c2.11-2.11,2.736-5.137,1.89-7.797L22,13z"/>
</svg>
