<?xml version="1.0" encoding="iso-8859-1"?>
<!-- Generator: Adobe Illustrator 21.1.0, SVG Export Plug-In . SVG Version: 6.00 Build 0)  -->
<svg version="1.1" id="Layer_1" xmlns="http://www.w3.org/2000/svg" xmlns:xlink="http://www.w3.org/1999/xlink" x="0px" y="0px"
	 viewBox="0 0 30 30" style="enable-background:new 0 0 30 30;" xml:space="preserve">
<path style="fill:none;stroke:#000000;stroke-width:2;stroke-linecap:round;stroke-linejoin:round;stroke-miterlimit:10;" d="M24,26
	H8c-1.105,0-2-0.895-2-2v0c0-1.105,0.895-2,2-2"/>
<path d="M23,3H8C6.343,3,5,4.343,5,6v18l2-1h16c1.105,0,2-0.895,2-2V5C25,3.895,24.105,3,23,3z M19,11h-7c-0.552,0-1-0.448-1-1
	c0-0.552,0.448-1,1-1h7c0.552,0,1,0.448,1,1C20,10.552,19.552,11,19,11z"/>
</svg>
