<?xml version="1.0" encoding="iso-8859-1"?>
<!-- Generator: Adobe Illustrator 21.1.0, SVG Export Plug-In . SVG Version: 6.00 Build 0)  -->
<svg version="1.1" id="Layer_1" xmlns="http://www.w3.org/2000/svg" xmlns:xlink="http://www.w3.org/1999/xlink" x="0px" y="0px"
	 viewBox="0 0 30 30" style="enable-background:new 0 0 30 30;" xml:space="preserve">
<polygon points="15.775,16.369 15,17 14.225,16.369 8.31,23.277 8.9,25 21.1,25 21.69,23.277 "/>
<circle cx="15" cy="17" r="1"/>
<circle cx="21" cy="24" r="1"/>
<circle cx="9" cy="24" r="1"/>
<path d="M25,5H5C3.897,5,3,5.897,3,7v11c0,1.103,0.897,2,2,2h4.141l1.712-2H5V7h20l0.001,11h-5.855l1.712,2H25c1.103,0,2-0.897,2-2
	V7C27,5.897,26.103,5,25,5z"/>
</svg>
