<?xml version="1.0" encoding="iso-8859-1"?>
<!-- Generator: Adobe Illustrator 21.1.0, SVG Export Plug-In . SVG Version: 6.00 Build 0)  -->
<svg version="1.1" id="Layer_1" xmlns="http://www.w3.org/2000/svg" xmlns:xlink="http://www.w3.org/1999/xlink" x="0px" y="0px"
	 viewBox="0 0 30 30" style="enable-background:new 0 0 30 30;" xml:space="preserve">
<path d="M26,25H4c-1.105,0-2-0.895-2-2V11c0-0.552,0.448-1,1-1h24c0.552,0,1,0.448,1,1v12C28,24.105,27.105,25,26,25z"/>
<path d="M4,3h4.868c0.703,0,1.354,0.369,1.715,0.971L13,8H2V5C2,3.895,2.895,3,4,3z"/>
<path d="M26,5H2v3h26V7C28,5.895,27.105,5,26,5z"/>
</svg>
