<?xml version="1.0" encoding="iso-8859-1"?>
<!-- Generator: Adobe Illustrator 21.1.0, SVG Export Plug-In . SVG Version: 6.00 Build 0)  -->
<svg version="1.1" id="Layer_1" xmlns="http://www.w3.org/2000/svg" xmlns:xlink="http://www.w3.org/1999/xlink" x="0px" y="0px"
	 viewBox="0 0 30 30" style="enable-background:new 0 0 30 30;" xml:space="preserve">
<polygon points="9,7 6,7 6,10 "/>
<polygon points="21,7 24,7 24,10 "/>
<path d="M25,4h-7.556C17.788,4.591,18,5.268,18,6c0,0.732-0.212,1.409-0.556,2H25c1.105,0,2-0.895,2-2C27,4.895,26.105,4,25,4z"/>
<path d="M14,4H5C3.895,4,3,4.895,3,6c0,1.105,0.895,2,2,2h9c1.105,0,2-0.895,2-2C16,4.895,15.105,4,14,4z"/>
<path d="M3,26h12c-0.954-2.475-3.068-2.23-4-3.654v-1.124c0.391-0.402,1.235-1.342,1.314-2.037c0,0,0.736-0.509,0.736-1.42
	c0-0.632-0.282-0.727-0.282-0.727s0.507-0.962,0.507-1.88c0-1.84-0.924-3.256-2.475-3.256c0,0-0.659-0.9-1.8-0.9
	c-2.423,0-4.388,1.459-4.388,4.071c0,1.104,0.62,1.965,0.62,1.965S4.95,17.174,4.95,17.764c0,1.146,0.736,1.42,0.736,1.42
	C5.765,19.88,6.609,20.819,7,21.221v1.124C6.068,23.77,3.954,23.525,3,26z"/>
<path d="M16.95,17.764c0,1.146,0.736,1.42,0.736,1.42c0.079,0.696,0.923,1.635,1.314,2.037v1.124c-0.606,0.926-1.71,1.15-2.671,1.87
	c0.196,0.316,0.381,0.66,0.537,1.064L17.144,26H27c-0.954-2.475-3.068-2.23-4-3.654v-1.124c0.391-0.402,1.235-1.342,1.314-2.037
	c0,0,0.736-0.509,0.736-1.42c0-0.632-0.282-0.727-0.282-0.727s0.507-0.962,0.507-1.88c0-1.84-0.924-3.256-2.475-3.256
	c0,0-0.659-0.9-1.8-0.9c-2.423,0-4.388,1.459-4.388,4.071c0,1.104,0.62,1.965,0.62,1.965S16.95,17.174,16.95,17.764z"/>
</svg>
