<?xml version="1.0" encoding="iso-8859-1"?>
<!-- Generator: Adobe Illustrator 21.1.0, SVG Export Plug-In . SVG Version: 6.00 Build 0)  -->
<svg version="1.1" id="Layer_1" xmlns="http://www.w3.org/2000/svg" xmlns:xlink="http://www.w3.org/1999/xlink" x="0px" y="0px"
	 viewBox="0 0 30 30" style="enable-background:new 0 0 30 30;" xml:space="preserve">
<line style="fill:none;stroke:#000000;stroke-width:2;stroke-linecap:round;stroke-miterlimit:10;" x1="6" y1="7" x2="24" y2="7"/>
<line style="fill:none;stroke:#000000;stroke-width:2;stroke-linecap:round;stroke-miterlimit:10;" x1="7" y1="3" x2="23" y2="3"/>
<path d="M24,10H6c-1.105,0-2,0.895-2,2v14c0,1.105,0.895,2,2,2h18c1.105,0,2-0.895,2-2V12C26,10.895,25.105,10,24,10z M19,15.77
	c0,0.148-0.105,0.276-0.25,0.305L15,16.898c0,0,0,3.819,0,5.279C15,23.662,14.493,25,12.733,25c-1.432,0-2.233-0.791-2.233-2
	c0-2.918,3.5-1.753,3.5-3v-6l4.643-0.994C18.828,12.969,19,13.11,19,13.299V15.77z"/>
</svg>
