<?xml version="1.0" encoding="iso-8859-1"?>
<!-- Generator: Adobe Illustrator 21.1.0, SVG Export Plug-In . SVG Version: 6.00 Build 0)  -->
<svg version="1.1" id="Layer_1" xmlns="http://www.w3.org/2000/svg" xmlns:xlink="http://www.w3.org/1999/xlink" x="0px" y="0px"
	 viewBox="0 0 30 30" style="enable-background:new 0 0 30 30;" xml:space="preserve">
<path d="M15,3C8.373,3,3,8.373,3,15c0,6.627,5.373,12,12,12s12-5.373,12-12C27,8.373,21.627,3,15,3z M15,18
	c0,0-5.554-5.554-5.707-5.707c-0.391-0.391-0.391-1.024,0-1.414c0.391-0.391,1.024-0.391,1.414,0C10.861,11.032,15,15.172,15,15.172
	s5.139-5.139,5.293-5.293c0.391-0.391,1.024-0.391,1.414,0c0.391,0.391,0.391,1.024,0,1.414C21.554,11.446,15,18,15,18z"/>
<path d="M3,22.184V25c0,1.105,0.895,2,2,2h2.816C5.84,25.815,4.185,24.16,3,22.184z"/>
<path d="M22.184,27H25c1.105,0,2-0.895,2-2v-2.816C25.815,24.16,24.16,25.815,22.184,27z"/>
</svg>
