<?xml version="1.0" encoding="iso-8859-1"?>
<!-- Generator: Adobe Illustrator 21.1.0, SVG Export Plug-In . SVG Version: 6.00 Build 0)  -->
<svg version="1.1" id="Layer_1" xmlns="http://www.w3.org/2000/svg" xmlns:xlink="http://www.w3.org/1999/xlink" x="0px" y="0px"
	 viewBox="0 0 30 30" style="enable-background:new 0 0 30 30;" xml:space="preserve">
<path d="M3,10V8c0-1.105,0.895-2,2-2h20c1.105,0,2,0.895,2,2v2H3z"/>
<g>
	<path d="M14,12H4v13c0,1.105,0.895,2,2,2h8V12z"/>
	<path d="M16,12v15h8c1.105,0,2-0.895,2-2V12H16z"/>
</g>
<path style="fill:none;stroke:#000000;stroke-width:2;stroke-linecap:round;stroke-linejoin:round;stroke-miterlimit:10;" d="M15,5
	c0,0.552,0,2,0,2s1.448,0,2,0c1.105,0,2-0.895,2-2s-0.895-2-2-2S15,3.895,15,5z"/>
<path style="fill:none;stroke:#000000;stroke-width:2;stroke-linecap:round;stroke-linejoin:round;stroke-miterlimit:10;" d="M15,5
	c0,0.552,0,2,0,2s-1.448,0-2,0c-1.105,0-2-0.895-2-2s0.895-2,2-2S15,3.895,15,5z"/>
</svg>
