<?xml version="1.0" encoding="iso-8859-1"?>
<!-- Generator: Adobe Illustrator 21.1.0, SVG Export Plug-In . SVG Version: 6.00 Build 0)  -->
<svg version="1.1" id="Layer_1" xmlns="http://www.w3.org/2000/svg" xmlns:xlink="http://www.w3.org/1999/xlink" x="0px" y="0px"
	 viewBox="0 0 30 30" style="enable-background:new 0 0 30 30;" xml:space="preserve">
<path d="M26,5H4C2.895,5,2,5.895,2,7v16c0,1.105,0.895,2,2,2h22c1.105,0,2-0.895,2-2V7C28,5.895,27.105,5,26,5z M25,22H5v-7
	l2.289-2.289c0.945-0.945,2.477-0.945,3.422,0L15,17l2.289-2.289c0.945-0.945,2.477-0.945,3.422,0L25,19V22z M23,12
	c-1.105,0-2-0.895-2-2c0-1.105,0.895-2,2-2s2,0.895,2,2C25,11.105,24.105,12,23,12z"/>
<path d="M17.681,18.152c-0.422,0.422-1.102,0.427-1.524,0.005l-2.184-2.184l1.556-1.503l2.152,2.152
	C18.104,17.045,18.104,17.73,17.681,18.152L17.681,18.152z"/>
</svg>
