<?xml version="1.0" encoding="iso-8859-1"?>
<!-- Generator: Adobe Illustrator 21.1.0, SVG Export Plug-In . SVG Version: 6.00 Build 0)  -->
<svg version="1.1" id="Layer_1" xmlns="http://www.w3.org/2000/svg" xmlns:xlink="http://www.w3.org/1999/xlink" x="0px" y="0px"
	 viewBox="0 0 30 30" style="enable-background:new 0 0 30 30;" xml:space="preserve">
<path d="M15,3C8.373,3,3,8.373,3,15c0,6.627,5.373,12,12,12s12-5.373,12-12C27,8.373,21.627,3,15,3z M21,16h-5v5
	c0,0.553-0.448,1-1,1s-1-0.447-1-1v-5H9c-0.552,0-1-0.447-1-1s0.448-1,1-1h5V9c0-0.553,0.448-1,1-1s1,0.447,1,1v5h5
	c0.552,0,1,0.447,1,1S21.552,16,21,16z"/>
</svg>
