<?xml version="1.0" encoding="iso-8859-1"?>
<!-- Generator: Adobe Illustrator 21.1.0, SVG Export Plug-In . SVG Version: 6.00 Build 0)  -->
<svg version="1.1" id="Layer_1" xmlns="http://www.w3.org/2000/svg" xmlns:xlink="http://www.w3.org/1999/xlink" x="0px" y="0px"
	 viewBox="0 0 30 30" style="enable-background:new 0 0 30 30;" xml:space="preserve">
<path d="M24,7V6c0-1.105-0.895-2-2-2H3C1.895,4,1,4.895,1,6v1H24z"/>
<path d="M1,10v9c0,1.105,0.895,2,2,2h19c1.105,0,2-0.895,2-2v-9H1z"/>
<path d="M29,11v-1c0-1.105-0.895-2-2-2h-1v3H29z"/>
<path d="M26,14v7c0,1.105-0.895,2-2,2H6v1c0,1.105,0.895,2,2,2h19c1.105,0,2-0.895,2-2V14H26z"/>
</svg>
