<?xml version="1.0" encoding="iso-8859-1"?>
<!-- Generator: Adobe Illustrator 21.1.0, SVG Export Plug-In . SVG Version: 6.00 Build 0)  -->
<svg version="1.1" id="Layer_1" xmlns="http://www.w3.org/2000/svg" xmlns:xlink="http://www.w3.org/1999/xlink" x="0px" y="0px"
	 viewBox="0 0 30 30" style="enable-background:new 0 0 30 30;" xml:space="preserve">
<path d="M16,27h-2c-0.552,0-1-0.448-1-1V4c0-0.552,0.448-1,1-1h2c0.552,0,1,0.448,1,1v22C17,26.552,16.552,27,16,27z"/>
<path d="M25.892,20.134l-1,1.732c-0.276,0.478-0.888,0.642-1.366,0.366l-19.053-11c-0.478-0.276-0.642-0.888-0.366-1.366l1-1.732
	c0.276-0.478,0.888-0.642,1.366-0.366l19.053,11C26.005,19.044,26.168,19.656,25.892,20.134z"/>
<path d="M24.892,8.134l1,1.732c0.276,0.478,0.112,1.09-0.366,1.366l-19.053,11c-0.478,0.276-1.09,0.112-1.366-0.366l-1-1.732
	c-0.276-0.478-0.112-1.09,0.366-1.366l19.053-11C24.005,7.492,24.616,7.656,24.892,8.134z"/>
</svg>
