<?xml version="1.0" encoding="iso-8859-1"?>
<!-- Generator: Adobe Illustrator 21.1.0, SVG Export Plug-In . SVG Version: 6.00 Build 0)  -->
<svg version="1.1" id="Layer_1" xmlns="http://www.w3.org/2000/svg" xmlns:xlink="http://www.w3.org/1999/xlink" x="0px" y="0px"
	 viewBox="0 0 30 30" style="enable-background:new 0 0 30 30;" xml:space="preserve">
<path d="M23,16v-4c0-0.552,0.448-1,1-1h2.857l-0.338-0.788C26.204,9.477,25.481,9,24.681,9H18v14h3.05
	c-0.084-0.414-0.068-0.863,0.087-1.326c0.262-0.784,0.935-1.404,1.738-1.598C24.527,19.676,26,20.916,26,22.5
	c0,0.171-0.018,0.338-0.05,0.5H29v-7H23z"/>
<circle style="fill:none;stroke:#000000;stroke-width:2;stroke-miterlimit:10;" cx="23.5" cy="22.5" r="2.5"/>
<path d="M16,5H3C1.895,5,1,5.895,1,7v16h4.05c-0.084-0.414-0.068-0.863,0.087-1.326c0.262-0.784,0.935-1.404,1.738-1.598
	C8.527,19.676,10,20.916,10,22.5c0,0.171-0.018,0.338-0.05,0.5H18V7C18,5.895,17.105,5,16,5z"/>
<circle style="fill:none;stroke:#000000;stroke-width:2;stroke-miterlimit:10;" cx="7.5" cy="22.5" r="2.5"/>
<line style="fill:none;stroke:#000000;stroke-width:2;stroke-linecap:round;stroke-miterlimit:10;" x1="28" y1="22" x2="29" y2="22"/>
<line style="fill:none;stroke:#000000;stroke-width:2;stroke-linecap:round;stroke-miterlimit:10;" x1="1" y1="22" x2="3" y2="22"/>
</svg>
