<?xml version="1.0" encoding="iso-8859-1"?>
<!-- Generator: Adobe Illustrator 21.1.0, SVG Export Plug-In . SVG Version: 6.00 Build 0)  -->
<svg version="1.1" id="Layer_1" xmlns="http://www.w3.org/2000/svg" xmlns:xlink="http://www.w3.org/1999/xlink" x="0px" y="0px"
	 viewBox="0 0 30 30" style="enable-background:new 0 0 30 30;" xml:space="preserve">
<polygon points="19,5.185 11,6.798 11,24.797 19,23.2 "/>
<path d="M9,6.709L3.394,5.067C3.262,5.025,3.14,5,3,5C2.448,5,2,5.448,2,6v16c0,0.466,0.325,0.84,0.757,0.951L9,24.754V6.709z"/>
<path d="M27.218,7.044L21,5.25v18.042l5.681,1.644C26.782,24.97,26.887,25,27,25c0.552,0,1-0.448,1-1V8
	C28,7.525,27.659,7.179,27.218,7.044z"/>
</svg>
