<?xml version="1.0" encoding="iso-8859-1"?>
<!-- Generator: Adobe Illustrator 21.1.0, SVG Export Plug-In . SVG Version: 6.00 Build 0)  -->
<svg version="1.1" id="Layer_1" xmlns="http://www.w3.org/2000/svg" xmlns:xlink="http://www.w3.org/1999/xlink" x="0px" y="0px"
	 viewBox="0 0 30 30" style="enable-background:new 0 0 30 30;" xml:space="preserve">
<circle cx="15" cy="15" r="2"/>
<path style="fill:none;stroke:#000000;stroke-width:2;stroke-linecap:round;stroke-miterlimit:10;" d="M7.363,4.496
	C4.118,6.86,2,10.678,2,15s2.118,8.14,5.363,10.504"/>
<path style="fill:none;stroke:#000000;stroke-width:2;stroke-linecap:round;stroke-miterlimit:10;" d="M22.637,25.504
	C25.882,23.14,28,19.322,28,15s-2.118-8.14-5.363-10.504"/>
<path style="fill:none;stroke:#000000;stroke-width:2;stroke-linecap:round;stroke-miterlimit:10;" d="M10.007,7.514
	C7.592,9.128,6,11.877,6,15s1.592,5.872,4.007,7.486"/>
<path style="fill:none;stroke:#000000;stroke-width:2;stroke-linecap:round;stroke-miterlimit:10;" d="M19.993,22.486
	C22.408,20.872,24,18.123,24,15s-1.592-5.872-4.007-7.486"/>
<path style="fill:none;stroke:#000000;stroke-width:2;stroke-linecap:round;stroke-miterlimit:10;" d="M12.698,10.586
	C11.102,11.421,10,13.073,10,15s1.102,3.579,2.698,4.414"/>
<path style="fill:none;stroke:#000000;stroke-width:2;stroke-linecap:round;stroke-miterlimit:10;" d="M17.302,19.414
	C18.898,18.579,20,16.927,20,15s-1.102-3.579-2.698-4.414"/>
</svg>
