<?xml version="1.0" encoding="iso-8859-1"?>
<!-- Generator: Adobe Illustrator 21.1.0, SVG Export Plug-In . SVG Version: 6.00 Build 0)  -->
<svg version="1.1" id="Layer_1" xmlns="http://www.w3.org/2000/svg" xmlns:xlink="http://www.w3.org/1999/xlink" x="0px" y="0px"
	 viewBox="0 0 30 30" style="enable-background:new 0 0 30 30;" xml:space="preserve">
<g>
	<path d="M17,20.263v-1.684c0,0,1.568-1.478,1.682-2.486c0,0,0.818-0.565,0.818-1.578c0-0.702-0.313-0.808-0.313-0.808
		s0.563-1.069,0.563-2.089C19.75,9.573,18.724,8,17,8c0,0-0.732-1-2-1c-2.692,0-4.875,1.622-4.875,4.524
		c0,1.227,0.688,2.183,0.688,2.183S10.5,13.86,10.5,14.515c0,1.273,0.818,1.578,0.818,1.578C11.432,17.101,13,18.579,13,18.579
		v1.684C12.158,22.789,7,21.125,7,27h16C23,21.105,17.842,22.789,17,20.263z"/>
</g>
<g>
	<path d="M21.75,11.618c0,0.735-0.172,1.441-0.358,1.989c0.069,0.271,0.108,0.573,0.108,0.908c0,2.47-2.5,4.934-2.5,4.934
		c0.543,0.237,2.28,1.12,2.99,1.551H30c0-5.25-4.263-3.75-5-6v-1.5c0.332-0.167,1.122-1.316,1.222-2.214
		C26.482,11.266,27,10.629,27,10.06s-0.18-0.807-0.337-0.899c0,0,0.337-0.752,0.337-1.661C27,5.679,26.508,4,25,4c0,0-0.433-1-2-1
		c-2.223,0-3.588,1.529-3.918,3.533C20.698,7.399,21.75,9.267,21.75,11.618z"/>
</g>
<g>
	<path d="M11,19.392c-0.543-0.58-1.327-1.582-1.612-2.341c-0.624-0.313-1.151-0.682-1.388-1.3v-1.008
		c0.19,0,0.751-0.044,0.948-0.088c-0.446-0.687-0.823-2.253-0.823-3.131c0-2.233,0.961-4.07,2.556-5.221C10.2,4.462,9.132,3,6.601,3
		C5.687,3,5,4,5,4c-5.235,0-2.346,8.355-3.884,9.587c0,0,0.942,1.167,3.884,1.167v0.998C4.187,17.87,0,17.087,0,21h8.023
		C8.727,20.574,11,19.392,11,19.392z"/>
</g>
</svg>
