<?xml version="1.0" encoding="iso-8859-1"?>
<!-- Generator: Adobe Illustrator 21.1.0, SVG Export Plug-In . SVG Version: 6.00 Build 0)  -->
<svg version="1.1" id="Layer_1" xmlns="http://www.w3.org/2000/svg" xmlns:xlink="http://www.w3.org/1999/xlink" x="0px" y="0px"
	 viewBox="0 0 30 30" style="enable-background:new 0 0 30 30;" xml:space="preserve">
<g>
	<path d="M4,18.742V24c0,1.105,0.895,2,2,2h5.258c1.336,0,2.006-1.616,1.061-2.561l-5.758-5.758C5.616,16.737,4,17.406,4,18.742z"/>
	<path d="M26,11.258V6c0-1.105-0.895-2-2-2h-5.258c-1.336,0-2.006,1.616-1.061,2.561l5.758,5.758C24.384,13.263,26,12.594,26,11.258
		z"/>
	<path d="M10.879,4H6C4.895,4,4,4.895,4,6v4.879L19.121,26H24c1.105,0,2-0.895,2-2v-4.879L10.879,4z"/>
</g>
</svg>
