<?xml version="1.0" encoding="iso-8859-1"?>
<!-- Generator: Adobe Illustrator 21.1.0, SVG Export Plug-In . SVG Version: 6.00 Build 0)  -->
<svg version="1.1" id="Layer_1" xmlns="http://www.w3.org/2000/svg" xmlns:xlink="http://www.w3.org/1999/xlink" x="0px" y="0px"
	 viewBox="0 0 30 30" style="enable-background:new 0 0 30 30;" xml:space="preserve">
<path d="M15,3C8.373,3,3,8.373,3,15c0,6.627,5.373,12,12,12s12-5.373,12-12C27,8.373,21.627,3,15,3z M15,22.5
	c-0.828,0-1.5-0.672-1.5-1.5s0.672-1.5,1.5-1.5s1.5,0.672,1.5,1.5S15.828,22.5,15,22.5z M17.068,15.5C16.406,16.111,16,16.512,16,17
	h-2c0-1.389,0.949-2.265,1.711-2.97C16.51,13.292,17,12.799,17,12c0-1.103-0.897-2-2-2s-2,0.897-2,2h-2c0-2.206,1.794-4,4-4
	s4,1.794,4,4C19,13.715,17.929,14.704,17.068,15.5z"/>
</svg>
