<?xml version="1.0" encoding="iso-8859-1"?>
<!-- Generator: Adobe Illustrator 21.1.0, SVG Export Plug-In . SVG Version: 6.00 Build 0)  -->
<svg version="1.1" id="Layer_1" xmlns="http://www.w3.org/2000/svg" xmlns:xlink="http://www.w3.org/1999/xlink" x="0px" y="0px"
	 viewBox="0 0 30 30" style="enable-background:new 0 0 30 30;" xml:space="preserve">
<path d="M15,26v2c2.342,0,4.202-0.853,5.623-2H15z"/>
<path style="fill:none;stroke:#000000;stroke-width:2;stroke-linecap:round;stroke-miterlimit:10;" d="M5,16v2c0,2.5,2,3,2,3
	s2,6,8,6"/>
<path d="M26,17h-3c0-6.24-3-9-3-9c-3,7-13,2-13,9H4c0,0,0-0.118,0-4C4,6,10,2,15,2c4,0,5,2,5,2c4,0,6,5,6,9V17z"/>
<path d="M15.5,21c-0.176,0-0.824,0-1,0c-0.828,0-1.5,0.672-1.5,1.5s0.672,1.5,1.5,1.5c0.176,0,0.824,0,1,0
	c0.828,0,1.5-0.672,1.5-1.5S16.328,21,15.5,21z"/>
<path style="fill:none;stroke:#000000;stroke-width:2;stroke-linecap:round;stroke-miterlimit:10;" d="M16,23h5c2.209,0,4-1.791,4-4
	v-3"/>
<path d="M25,20h-2v-5h2c1.105,0,2,0.895,2,2v1C27,19.105,26.105,20,25,20z"/>
</svg>
