<?xml version="1.0" encoding="iso-8859-1"?>
<!-- Generator: Adobe Illustrator 21.1.0, SVG Export Plug-In . SVG Version: 6.00 Build 0)  -->
<svg version="1.1" id="Layer_1" xmlns="http://www.w3.org/2000/svg" xmlns:xlink="http://www.w3.org/1999/xlink" x="0px" y="0px"
	 viewBox="0 0 30 30" style="enable-background:new 0 0 30 30;" xml:space="preserve">
<path d="M26,4H4C2.895,4,2,4.895,2,6v18c0,1.105,0.895,2,2,2h22c1.105,0,2-0.895,2-2V6C28,4.895,27.105,4,26,4z M26,9h-3V6h3V9z
	 M26,14h-3v-3h3V14z M21.5,16h-13C8.224,16,8,15.776,8,15.5v0C8,15.224,8.224,15,8.5,15h13c0.276,0,0.5,0.224,0.5,0.5v0
	C22,15.776,21.776,16,21.5,16z M26,19h-3v-3h3V19z M26,24h-3v-3h3V24z M7,9H4V6h3V9z M7,14H4v-3h3V14z M7,19H4v-3h3V19z M7,24H4v-3
	h3V24z"/>
</svg>
