<?xml version="1.0" encoding="iso-8859-1"?>
<!-- Generator: Adobe Illustrator 21.1.0, SVG Export Plug-In . SVG Version: 6.00 Build 0)  -->
<svg version="1.1" id="Layer_1" xmlns="http://www.w3.org/2000/svg" xmlns:xlink="http://www.w3.org/1999/xlink" x="0px" y="0px"
	 viewBox="0 0 30 30" style="enable-background:new 0 0 30 30;" xml:space="preserve">
<path d="M8,19H3c-1.657,0-3-1.343-3-3v-2c0-1.657,1.343-3,3-3h5V19z"/>
<polygon points="11,23 6.075,18.316 6.075,11.684 11,7 "/>
<path style="fill:none;stroke:#000000;stroke-width:2;stroke-linecap:round;stroke-linejoin:round;stroke-miterlimit:10;" d="
	M25.323,26.242C27.621,23.172,29,19.377,29,15.256c0-4.35-1.526-8.346-4.06-11.498"/>
<path style="fill:none;stroke:#000000;stroke-width:2;stroke-linecap:round;stroke-linejoin:round;stroke-miterlimit:10;" d="
	M15.157,20.428C16.307,19.015,17,17.215,17,15.256c0-2.192-0.869-4.182-2.275-5.655"/>
<path style="fill:none;stroke:#000000;stroke-width:2;stroke-linecap:round;stroke-linejoin:round;stroke-miterlimit:10;" d="
	M20.408,23.343C22.034,21.056,23,18.269,23,15.256c0-3.242-1.118-6.222-2.975-8.598"/>
</svg>
