<?xml version="1.0" encoding="iso-8859-1"?>
<!-- Generator: Adobe Illustrator 21.1.0, SVG Export Plug-In . SVG Version: 6.00 Build 0)  -->
<svg version="1.1" id="Layer_1" xmlns="http://www.w3.org/2000/svg" xmlns:xlink="http://www.w3.org/1999/xlink" x="0px" y="0px"
	 viewBox="0 0 30 30" style="enable-background:new 0 0 30 30;" xml:space="preserve">
<path d="M5,4h4.868c0.703,0,1.354,0.369,1.715,0.971L14,9H3V6C3,4.895,3.895,4,5,4z"/>
<path d="M25,6H3v5h19h5V8C27,6.895,26.105,6,25,6z"/>
<path d="M27.499,13H15v13h9.053c0.878,0,1.653-0.573,1.912-1.412l2.968-9.647C29.229,13.977,28.508,13,27.499,13z"/>
<path d="M2.501,13H15v13H5.947c-0.878,0-1.653-0.573-1.912-1.412l-2.968-9.647C0.771,13.977,1.492,13,2.501,13z"/>
</svg>
