<?xml version="1.0" encoding="iso-8859-1"?>
<!-- Generator: Adobe Illustrator 21.1.0, SVG Export Plug-In . SVG Version: 6.00 Build 0)  -->
<svg version="1.1" id="Layer_1" xmlns="http://www.w3.org/2000/svg" xmlns:xlink="http://www.w3.org/1999/xlink" x="0px" y="0px"
	 viewBox="0 0 30 30" style="enable-background:new 0 0 30 30;" xml:space="preserve">
<path d="M14,12V6c0-1.105-0.895-2-2-2H6C4.895,4,4,4.895,4,6v6c0,1.105,0.895,2,2,2h6C13.105,14,14,13.105,14,12z"/>
<path d="M18,14h6c1.105,0,2-0.895,2-2V6c0-1.105-0.895-2-2-2h-6c-1.105,0-2,0.895-2,2v6C16,13.105,16.895,14,18,14z"/>
<path d="M12,16H6c-1.105,0-2,0.895-2,2v6c0,1.105,0.895,2,2,2h6c1.105,0,2-0.895,2-2v-6C14,16.895,13.105,16,12,16z"/>
<path d="M16,18v6c0,1.105,0.895,2,2,2h6c1.105,0,2-0.895,2-2v-6c0-1.105-0.895-2-2-2h-6C16.895,16,16,16.895,16,18z"/>
</svg>
