<?xml version="1.0" encoding="iso-8859-1"?>
<!-- Generator: Adobe Illustrator 21.1.0, SVG Export Plug-In . SVG Version: 6.00 Build 0)  -->
<svg version="1.1" id="Layer_1" xmlns="http://www.w3.org/2000/svg" xmlns:xlink="http://www.w3.org/1999/xlink" x="0px" y="0px"
	 viewBox="0 0 30 30" style="enable-background:new 0 0 30 30;" xml:space="preserve">
<path d="M16,5h-4c0-1.105,0.895-2,2-2S16,3.895,16,5z"/>
<polygon points="15.513,3.692 12.492,3.692 10,6 18,6 "/>
<path d="M22,5h-4c0-1.105,0.895-2,2-2S22,3.895,22,5z"/>
<polygon points="21.513,3.692 18.492,3.692 16,6 24,6 "/>
<circle cx="22" cy="25" r="2"/>
<circle cx="12" cy="25" r="2"/>
<polygon points="24,20 10.5,20 7,9 27,9 "/>
<path style="fill:none;stroke:#000000;stroke-width:2;stroke-linecap:round;stroke-linejoin:round;stroke-miterlimit:10;" d="M2,3
	h1.878c0.665,0,1.251,0.438,1.439,1.077l4.261,14.488C9.828,19.415,10.609,20,11.496,20h10.976c0.902,0,1.692-0.604,1.93-1.474L27,9
	H7"/>
</svg>
