<?xml version="1.0" encoding="iso-8859-1"?>
<!-- Generator: Adobe Illustrator 21.1.0, SVG Export Plug-In . SVG Version: 6.00 Build 0)  -->
<svg version="1.1" id="Layer_1" xmlns="http://www.w3.org/2000/svg" xmlns:xlink="http://www.w3.org/1999/xlink" x="0px" y="0px"
	 viewBox="0 0 30 30" style="enable-background:new 0 0 30 30;" xml:space="preserve">
<path style="fill:none;stroke:#000000;stroke-width:2;stroke-linecap:round;stroke-linejoin:round;stroke-miterlimit:10;" d="M22,5
	H7C5.895,5,5,5.895,5,7v0c0,1.105,0.895,2,2,2h9"/>
<path d="M24,8H6L4,7v16c0,1.657,1.343,3,3,3h17c1.105,0,2-0.895,2-2V10C26,8.895,25.105,8,24,8z M22,19c-1.105,0-2-0.895-2-2
	s0.895-2,2-2s2,0.895,2,2S23.105,19,22,19z"/>
</svg>
