<?xml version="1.0" encoding="iso-8859-1"?>
<!-- Generator: Adobe Illustrator 21.1.0, SVG Export Plug-In . SVG Version: 6.00 Build 0)  -->
<svg version="1.1" id="Layer_1" xmlns="http://www.w3.org/2000/svg" xmlns:xlink="http://www.w3.org/1999/xlink" x="0px" y="0px"
	 viewBox="0 0 30 30" style="enable-background:new 0 0 30 30;" xml:space="preserve">
<path d="M22,1H8C6.895,1,6,1.895,6,3v24c0,1.105,0.895,2,2,2h14c1.105,0,2-0.895,2-2V3C24,1.895,23.105,1,22,1z M17.5,2
	C17.776,2,18,2.224,18,2.5C18,2.776,17.776,3,17.5,3S17,2.776,17,2.5C17,2.224,17.224,2,17.5,2z M13.5,2h2C15.776,2,16,2.224,16,2.5
	C16,2.776,15.776,3,15.5,3h-2C13.224,3,13,2.776,13,2.5C13,2.224,13.224,2,13.5,2z M22,27H8V3h3l0.414,0.414
	C11.789,3.789,12.298,4,12.828,4h4.343c0.53,0,1.039-0.211,1.414-0.586L19,3h3V27z"/>
</svg>
