<?xml version="1.0" encoding="iso-8859-1"?>
<!-- Generator: Adobe Illustrator 21.1.0, SVG Export Plug-In . SVG Version: 6.00 Build 0)  -->
<svg version="1.1" id="Layer_1" xmlns="http://www.w3.org/2000/svg" xmlns:xlink="http://www.w3.org/1999/xlink" x="0px" y="0px"
	 viewBox="0 0 30 30" style="enable-background:new 0 0 30 30;" xml:space="preserve">
<path d="M27,9h-2v15c0,0.553-0.448,1-1,1s-1-0.447-1-1h-1v4h2c2.209,0,4-1.791,4-4V10C28,9.448,27.552,9,27,9z"/>
<path d="M22,2H4C3.448,2,3,2.448,3,3v21c0,2.209,1.791,4,4,4h16V3C23,2.448,22.552,2,22,2z M12,23H6v-2h6V23z M12,19H6v-2h6V19z
	 M12,15H6v-2h6V15z M20,23h-6v-2h6V23z M20,19h-6v-2h6V19z M20,15h-6v-2h6V15z M20,6v3H6V6H20z"/>
</svg>
