<?xml version="1.0" encoding="iso-8859-1"?>
<!-- Generator: Adobe Illustrator 21.1.0, SVG Export Plug-In . SVG Version: 6.00 Build 0)  -->
<svg version="1.1" id="Layer_1" xmlns="http://www.w3.org/2000/svg" xmlns:xlink="http://www.w3.org/1999/xlink" x="0px" y="0px"
	 viewBox="0 0 30 30" style="enable-background:new 0 0 30 30;" xml:space="preserve">
<path style="fill:none;stroke:#000000;stroke-width:2;stroke-miterlimit:10;" d="M3,18V7c0-1.105,0.895-2,2-2h20
	c1.105,0,2,0.895,2,2v11"/>
<path style="fill:none;stroke:#000000;stroke-width:2;stroke-miterlimit:10;" d="M3,11c0-1.105,0.895-2,2-2h20c1.105,0,2,0.895,2,2"
	/>
<path style="fill:none;stroke:#000000;stroke-width:2;stroke-miterlimit:10;" d="M3,15c0-1.105,0.895-2,2-2h20c1.105,0,2,0.895,2,2"
	/>
<path d="M18.106,17.789l-0.211,0.422C17.346,19.307,16.226,20,15,20h0c-1.226,0-2.346-0.693-2.894-1.789l-0.211-0.422
	C11.346,16.693,10.226,16,9,16H2v7c0,1.657,1.343,3,3,3h20c1.657,0,3-1.343,3-3v-7h-7C19.774,16,18.654,16.693,18.106,17.789z"/>
</svg>
