<?xml version="1.0" encoding="iso-8859-1"?>
<!-- Generator: Adobe Illustrator 21.1.0, SVG Export Plug-In . SVG Version: 6.00 Build 0)  -->
<svg version="1.1" id="Layer_1" xmlns="http://www.w3.org/2000/svg" xmlns:xlink="http://www.w3.org/1999/xlink" x="0px" y="0px"
	 viewBox="0 0 30 30" style="enable-background:new 0 0 30 30;" xml:space="preserve">
<g>
	<path d="M20,28c-4.962,0-9-3.589-9-8s4.038-8,9-8s9,3.589,9,8S24.962,28,20,28z"/>
	<path style="fill:#FFFFFF;" d="M20,13c4.418,0,8,3.134,8,7s-3.582,7-8,7s-8-3.134-8-7S15.582,13,20,13 M20,11
		c-5.514,0-10,4.037-10,9s4.486,9,10,9s10-4.037,10-9S25.514,11,20,11L20,11z"/>
</g>
<circle cx="3.5" cy="23.5" r="0.5"/>
<path d="M10,20c0-4.963,4.486-9,10-9c1.382,0,2.7,0.254,3.899,0.713C23.203,6.799,18.594,3,13,3C6.925,3,2,7.477,2,13
	c0,4.73,3.617,8.684,8.471,9.724C10.167,21.864,10,20.949,10,20z"/>
<path d="M27.868,27.279C25.445,25.131,26.333,23,26.333,23L20.5,24.667c0,0,3.052,3.101,7.014,3.325L27.868,27.279z"/>
<circle cx="27.583" cy="27.583" r="0.417"/>
<path d="M9,20c0-1.121,0.218-2.194,0.601-3.2L4,14c0,0,4.078,5.434-0.678,9.034l0.261,0.956c2.276,0,4.163-1.133,5.57-2.413
	C9.061,21.062,9,20.538,9,20z"/>
</svg>
