<?xml version="1.0" encoding="iso-8859-1"?>
<!-- Generator: Adobe Illustrator 21.1.0, SVG Export Plug-In . SVG Version: 6.00 Build 0)  -->
<svg version="1.1" id="Layer_1" xmlns="http://www.w3.org/2000/svg" xmlns:xlink="http://www.w3.org/1999/xlink" x="0px" y="0px"
	 viewBox="0 0 30 30" style="enable-background:new 0 0 30 30;" xml:space="preserve">
<path style="fill:none;stroke:#000000;stroke-width:2;stroke-miterlimit:10;" d="M24,20H6c-0.552,0-1-0.448-1-1V6
	c0-0.552,0.448-1,1-1h18c0.552,0,1,0.448,1,1v13C25,19.552,24.552,20,24,20z"/>
<path d="M24,20H6c-1.105,0-2,0.895-2,2v2c0,1.105,0.895,2,2,2h18c1.105,0,2-0.895,2-2v-2C26,20.895,25.105,20,24,20z M17,24H7
	c-0.552,0-1-0.448-1-1c0-0.552,0.448-1,1-1h10c0.552,0,1,0.448,1,1C18,23.552,17.552,24,17,24z M23,24c-0.552,0-1-0.448-1-1
	c0-0.552,0.448-1,1-1s1,0.448,1,1C24,23.552,23.552,24,23,24z"/>
</svg>
