<?xml version="1.0" encoding="iso-8859-1"?>
<!-- Generator: Adobe Illustrator 21.1.0, SVG Export Plug-In . SVG Version: 6.00 Build 0)  -->
<svg version="1.1" id="Layer_1" xmlns="http://www.w3.org/2000/svg" xmlns:xlink="http://www.w3.org/1999/xlink" x="0px" y="0px"
	 viewBox="0 0 30 30" style="enable-background:new 0 0 30 30;" xml:space="preserve">
<path d="M12.684,19.993C12.382,19.732,12.139,19.417,12,19v-2c0.383-0.189,1.363-1.324,1.734-2.395
	c-0.314-0.498-0.56-1.125-0.664-1.94c-0.086-0.677,0.016-1.266,0.223-1.755C13.138,10.371,13,9.696,13,9
	c0-1.386,0.287-2.655,0.799-3.757C13.337,4.779,12.743,4.5,12,4.5c0,0-0.374-1.5-2.5-1.5C6.012,3,4,5.721,4,9
	c0,1.104,0.528,2.214,0.528,2.214c-0.212,0.122-0.562,0.51-0.474,1.198c0.164,1.283,0.72,1.608,1.074,1.635
	C5.263,15.245,6.55,16.777,7,17v2c-1,3-7,1-7,8h9C9,22.824,10.864,20.99,12.684,19.993z"/>
<g>
	<path d="M23,19v-2c0.45-0.223,1.737-1.755,1.872-2.952c0.354-0.027,0.91-0.352,1.074-1.635c0.088-0.689-0.262-1.076-0.474-1.198
		c0,0,0.528-1.003,0.528-2.214c0-2.428-0.953-4.5-3-4.5c0,0-0.374-1.5-2.5-1.5C17.012,3,15,5.721,15,9
		c0,1.104,0.528,2.214,0.528,2.214c-0.212,0.122-0.562,0.51-0.474,1.198c0.164,1.283,0.72,1.608,1.074,1.635
		C16.263,15.245,17.55,16.777,18,17v2c-1,3-7,1-7,8h19C30,20,24,22,23,19z"/>
</g>
</svg>
