<?xml version="1.0" encoding="iso-8859-1"?>
<!-- Generator: Adobe Illustrator 21.1.0, SVG Export Plug-In . SVG Version: 6.00 Build 0)  -->
<svg version="1.1" id="Layer_1" xmlns="http://www.w3.org/2000/svg" xmlns:xlink="http://www.w3.org/1999/xlink" x="0px" y="0px"
	 viewBox="0 0 30 30" style="enable-background:new 0 0 30 30;" xml:space="preserve">
<path d="M14,23c0-3.539,2.047-6.591,5.017-8.062c0.409-0.57,0.785-1.273,0.855-1.89c0.354-0.027,0.91-0.352,1.074-1.635
	c0.088-0.689-0.262-1.076-0.474-1.198c0,0,0.528-1.003,0.528-2.214c0-2.428-0.953-4.5-3-4.5c0,0-0.711-1.5-3-1.5
	c-4.242,0-6,2.721-6,6c0,1.104,0.528,2.214,0.528,2.214c-0.212,0.122-0.562,0.51-0.474,1.198c0.164,1.283,0.72,1.608,1.074,1.635
	C10.263,14.245,11.55,15.777,12,16v2c-1,3-9,1-9,8h11.523C14.19,25.06,14,24.054,14,23z"/>
<path d="M23,16c-3.866,0-7,3.134-7,7c0,3.866,3.134,7,7,7s7-3.134,7-7C30,19.134,26.866,16,23,16z M26,24h-2v2c0,0.553-0.448,1-1,1
	s-1-0.447-1-1v-2h-2c-0.552,0-1-0.447-1-1s0.448-1,1-1h2v-2c0-0.553,0.448-1,1-1s1,0.447,1,1v2h2c0.552,0,1,0.447,1,1
	S26.552,24,26,24z"/>
</svg>
