<?xml version="1.0" encoding="iso-8859-1"?>
<!-- Generator: Adobe Illustrator 21.1.0, SVG Export Plug-In . SVG Version: 6.00 Build 0)  -->
<svg version="1.1" id="Layer_1" xmlns="http://www.w3.org/2000/svg" xmlns:xlink="http://www.w3.org/1999/xlink" x="0px" y="0px"
	 viewBox="0 0 30 30" style="enable-background:new 0 0 30 30;" xml:space="preserve">
<g>
	<path d="M12,6c-4.971,0-9,4.029-9,9c0,4.971,4.029,9,9,9s9-4.029,9-9C21,10.029,16.971,6,12,6z M13,19.014V20h-2v-0.978
		c-1.394-0.265-2.248-1.104-2.274-2.34h1.896c0.049,0.569,0.617,0.932,1.44,0.932c0.742,0,1.252-0.358,1.252-0.873
		c0-0.433-0.342-0.666-1.235-0.845l-1.029-0.206c-1.43-0.271-2.167-1.051-2.167-2.28c0-1.237,0.812-2.119,2.118-2.414V10h2v1.003
		c1.268,0.298,2.096,1.155,2.122,2.315h-1.836c-0.043-0.552-0.568-0.937-1.268-0.937s-1.159,0.331-1.159,0.851
		c0,0.428,0.347,0.677,1.17,0.839l1.008,0.195c1.544,0.298,2.237,0.997,2.237,2.237C15.274,17.839,14.428,18.731,13,19.014z"/>
</g>
<g>
	<path d="M22.803,12.961C22.928,13.622,23,14.302,23,15c0,1.825-0.453,3.543-1.243,5.059c0.349,0.364,0.517,0.838,0.517,1.444
		c0,1.336-0.846,2.228-2.274,2.511V25h-2v-0.792c-1.307,0.855-2.807,1.432-4.419,1.665C15.007,27.189,16.906,28,19,28
		c4.418,0,8-3.582,8-8C27,16.958,25.302,14.314,22.803,12.961z"/>
</g>
<g>
	<path d="M19,5.997V5h2v1.003c1.268,0.298,2.096,1.155,2.122,2.315h-1.836c-0.043-0.552-0.568-0.937-1.268-0.937
		c-0.032,0-0.055,0.009-0.086,0.011c0.572,0.596,1.073,1.258,1.5,1.97c1.033,0.277,1.602,0.785,1.777,1.577
		c1.478,0.688,2.757,1.724,3.736,3.007C27.612,12.782,28,11.439,28,10c0-4.418-3.582-8-8-8c-2.171,0-4.13,0.874-5.57,2.278
		c1.506,0.34,2.89,0.99,4.091,1.877C18.675,6.097,18.828,6.036,19,5.997z"/>
</g>
</svg>
