<?xml version="1.0" encoding="iso-8859-1"?>
<!-- Generator: Adobe Illustrator 21.1.0, SVG Export Plug-In . SVG Version: 6.00 Build 0)  -->
<svg version="1.1" id="Layer_1" xmlns="http://www.w3.org/2000/svg" xmlns:xlink="http://www.w3.org/1999/xlink" x="0px" y="0px"
	 viewBox="0 0 30 30" style="enable-background:new 0 0 30 30;" xml:space="preserve">
<path d="M15.649,21.044C14.091,20.498,12.477,20.431,12,19v-2c0.45-0.223,1.736-1.755,1.872-2.952
	c0.08-0.283,0.142-1.295,0.142-1.523c0-1.249-0.019-3.831,0.763-5.852c-0.273-1.358-0.986-2.502-2.515-2.653
	C11.853,3.343,10.805,3,9.442,3c-5.451,0.094-6.008,3.873-4.914,8.214c-0.212,0.122-0.562,0.51-0.474,1.198
	c0.164,1.283,0.72,1.608,1.074,1.635C5.263,15.245,6.55,16.777,7,17v2c-1,3-7,0-7,8h12C12,23.452,13.99,21.923,15.649,21.044z"/>
<g>
	<path d="M14,27c0-5,5-4,6-6.707v-1.275c-3.621,0-4.626-1.491-4.626-1.491C17.266,15.953,13.688,5,20.13,5c0,0,0.87-1,1.994-1
		C30,4,26.446,15.893,28.483,17.565c0,0-0.844,1.44-4.483,1.44v1.288C25,23,30,22,30,27H14z"/>
</g>
</svg>
