<?xml version="1.0" encoding="iso-8859-1"?>
<!-- Generator: Adobe Illustrator 21.1.0, SVG Export Plug-In . SVG Version: 6.00 Build 0)  -->
<svg version="1.1" id="Layer_1" xmlns="http://www.w3.org/2000/svg" xmlns:xlink="http://www.w3.org/1999/xlink" x="0px" y="0px"
	 viewBox="0 0 30 30" style="enable-background:new 0 0 30 30;" xml:space="preserve">
<path d="M17,5h-4V3c0-0.552,0.448-1,1-1h2c0.552,0,1,0.448,1,1V5z"/>
<path d="M15,4C8.925,4,4,8.925,4,15s4.925,11,11,11s11-4.925,11-11S21.075,4,15,4z M16,16.723V19h-2v-2.277
	c-0.595-0.346-1-0.984-1-1.723c0-0.738,0.405-1.376,1-1.723V7c0-0.552,0.448-1,1-1s1,0.448,1,1v6.277c0.595,0.346,1,0.984,1,1.723
	C17,15.738,16.595,16.376,16,16.723z"/>
<line style="fill:none;stroke:#000000;stroke-width:2;stroke-linecap:round;stroke-miterlimit:10;" x1="23" y1="5" x2="24" y2="6"/>
</svg>
