<?xml version="1.0" encoding="iso-8859-1"?>
<!-- Generator: Adobe Illustrator 21.1.0, SVG Export Plug-In . SVG Version: 6.00 Build 0)  -->
<svg version="1.1" id="Layer_1" xmlns="http://www.w3.org/2000/svg" xmlns:xlink="http://www.w3.org/1999/xlink" x="0px" y="0px"
	 viewBox="0 0 30 30" style="enable-background:new 0 0 30 30;" xml:space="preserve">
<circle cx="7" cy="6" r="3"/>
<line style="fill:none;stroke:#000000;stroke-width:2;stroke-linecap:round;stroke-linejoin:round;stroke-miterlimit:10;" x1="16" y1="12" x2="9" y2="12"/>
<path d="M10,25.967C10,26.537,9.537,27,8.967,27h0c-0.544,0-0.995-0.422-1.031-0.965l-0.438-6.57C7.48,19.204,7.263,19,7,19h0
	c-0.263,0-0.48,0.204-0.498,0.466l-0.438,6.57C6.028,26.578,5.577,27,5.033,27h0C4.463,27,4,26.537,4,25.967V13c0-1.105,0.895-2,2-2
	h6v2h-1c-0.552,0-1,0.448-1,1V25.967z"/>
<polyline style="fill:none;stroke:#000000;stroke-width:2;stroke-linejoin:round;stroke-miterlimit:10;" points="12,18 25,18 25,6 
	12,6 "/>
<line style="fill:none;stroke:#000000;stroke-width:2;stroke-linecap:round;stroke-linejoin:round;stroke-miterlimit:10;" x1="17" y1="6" x2="17" y2="5"/>
<line style="fill:none;stroke:#000000;stroke-width:2;stroke-linecap:round;stroke-linejoin:round;stroke-miterlimit:10;" x1="13" y1="26" x2="15" y2="18"/>
<line style="fill:none;stroke:#000000;stroke-width:2;stroke-linecap:round;stroke-linejoin:round;stroke-miterlimit:10;" x1="21" y1="26" x2="19" y2="18"/>
</svg>
