<?xml version="1.0" encoding="iso-8859-1"?>
<!-- Generator: Adobe Illustrator 21.1.0, SVG Export Plug-In . SVG Version: 6.00 Build 0)  -->
<svg version="1.1" id="Layer_1" xmlns="http://www.w3.org/2000/svg" xmlns:xlink="http://www.w3.org/1999/xlink" x="0px" y="0px"
	 viewBox="0 0 30 30" style="enable-background:new 0 0 30 30;" xml:space="preserve">
<circle cx="15" cy="16" r="1"/>
<g>
	<path d="M20,16c0-2.757-2.243-5-5-5s-5,2.243-5,5c0,1.955,1.139,3.634,2.778,4.456l1.082-1.683C12.77,18.323,12,17.251,12,16
		c0-1.654,1.346-3,3-3s3,1.346,3,3c0,1.251-0.77,2.323-1.861,2.772l1.082,1.683C18.861,19.634,20,17.955,20,16z"/>
	<path d="M24,16c0-4.962-4.038-9-9-9s-9,4.038-9,9c0,3.364,1.859,6.299,4.601,7.843l1.081-1.682C9.492,20.977,8,18.66,8,16
		c0-3.86,3.14-7,7-7s7,3.14,7,7c0,2.66-1.492,4.977-3.682,6.162l1.081,1.682C22.141,22.299,24,19.364,24,16z"/>
	<path d="M15,3C7.832,3,2,8.832,2,16c0,4.774,2.594,8.944,6.44,11.205l1.08-1.681C6.227,23.621,4,20.069,4,16C4,9.935,8.935,5,15,5
		s11,4.935,11,11c0,4.069-2.227,7.621-5.52,9.524l1.08,1.681C25.406,24.944,28,20.774,28,16C28,8.832,22.168,3,15,3z"/>
</g>
</svg>
