<?xml version="1.0" encoding="iso-8859-1"?>
<!-- Generator: Adobe Illustrator 21.1.0, SVG Export Plug-In . SVG Version: 6.00 Build 0)  -->
<svg version="1.1" id="Layer_1" xmlns="http://www.w3.org/2000/svg" xmlns:xlink="http://www.w3.org/1999/xlink" x="0px" y="0px"
	 viewBox="0 0 30 30" style="enable-background:new 0 0 30 30;" xml:space="preserve">
<path d="M25,17.238v7.481l-6-1.5v-3.168l-2-2.813v6.008l-5,1.429V8.781l0.011-0.003c0.018-0.739,0.127-1.455,0.314-2.14
	l-0.788,0.197c-0.34,0.085-0.697,0.079-1.035-0.017L4.339,5.056C3.668,4.865,3,5.368,3,6.066v17.179c0,0.893,0.592,1.678,1.45,1.923
	l6.194,1.77c0.233,0.066,0.479,0.066,0.712,0l6.147-1.756c0.337-0.096,0.694-0.102,1.035-0.017l7.158,1.79
	C26.358,27.121,27,26.619,27,25.936V15.643L25,17.238z M10,24.674l-5-1.428V7.326l5,1.428V24.674z"/>
<g>
	<path d="M21,2c-3.866,0-7,3.134-7,7c0,4.604,4.551,6.745,5.121,7.258c0.582,0.524,1.063,1.575,1.258,2.241
		c0.094,0.323,0.359,0.487,0.621,0.494c0.263-0.007,0.527-0.171,0.621-0.494c0.194-0.665,0.675-1.717,1.258-2.241
		C23.449,15.745,28,13.604,28,9C28,5.134,24.866,2,21,2z M21,11c-1.105,0-2-0.895-2-2s0.895-2,2-2s2,0.895,2,2S22.105,11,21,11z"/>
</g>
</svg>
