<?xml version="1.0" encoding="iso-8859-1"?>
<!-- Generator: Adobe Illustrator 21.1.0, SVG Export Plug-In . SVG Version: 6.00 Build 0)  -->
<svg version="1.1" id="Layer_1" xmlns="http://www.w3.org/2000/svg" xmlns:xlink="http://www.w3.org/1999/xlink" x="0px" y="0px"
	 viewBox="0 0 30 30" style="enable-background:new 0 0 30 30;" xml:space="preserve">
<path d="M8.612,22.397c0.072,1.537-0.143,3.65-2.29,4.637L6.5,27.99c2.897,0,6.099-1.922,7.332-5.158L8.612,22.397z"/>
<circle cx="6.5" cy="27.5" r="0.5"/>
<path d="M24,4H6C3.791,4,2,5.791,2,8v12c0,2.209,1.791,4,4,4h18c2.209,0,4-1.791,4-4V8C28,5.791,26.209,4,24,4z M15,16
	c-1.105,0-2-0.895-2-2c0-1.105,0.895-2,2-2s2,0.895,2,2C17,15.105,16.105,16,15,16z M21,16c-1.105,0-2-0.895-2-2
	c0-1.105,0.895-2,2-2s2,0.895,2,2C23,15.105,22.105,16,21,16z M9,16c-1.105,0-2-0.895-2-2c0-1.105,0.895-2,2-2s2,0.895,2,2
	C11,15.105,10.105,16,9,16z"/>
</svg>
