<?xml version="1.0" encoding="iso-8859-1"?>
<!-- Generator: Adobe Illustrator 21.1.0, SVG Export Plug-In . SVG Version: 6.00 Build 0)  -->
<svg version="1.1" id="Layer_1" xmlns="http://www.w3.org/2000/svg" xmlns:xlink="http://www.w3.org/1999/xlink" x="0px" y="0px"
	 viewBox="0 0 30 30" style="enable-background:new 0 0 30 30;" xml:space="preserve">
<path d="M15,3C8.373,3,3,8.373,3,15c0,6.627,5.373,12,12,12s12-5.373,12-12C27,8.373,21.627,3,15,3z M16,20.857V23h-2v-2.137
	c-2.13-0.284-3.471-1.523-3.546-3.359h2.281c0.109,0.914,1.031,1.5,2.359,1.5c1.227,0,2.094-0.594,2.094-1.445
	c0-0.719-0.562-1.133-1.945-1.43l-1.469-0.312c-2.055-0.43-3.062-1.5-3.062-3.219c0-1.83,1.274-3.116,3.288-3.439V7h2v2.156
	c1.956,0.317,3.276,1.584,3.337,3.317h-2.219c-0.109-0.891-0.938-1.484-2.078-1.484c-1.18,0-1.961,0.547-1.961,1.406
	c0,0.695,0.539,1.094,1.859,1.375l1.359,0.289c2.266,0.477,3.242,1.453,3.242,3.203C19.54,19.244,18.214,20.554,16,20.857z"/>
</svg>
