<?xml version="1.0" encoding="iso-8859-1"?>
<!-- Generator: Adobe Illustrator 21.1.0, SVG Export Plug-In . SVG Version: 6.00 Build 0)  -->
<svg version="1.1" id="Layer_1" xmlns="http://www.w3.org/2000/svg" xmlns:xlink="http://www.w3.org/1999/xlink" x="0px" y="0px"
	 viewBox="0 0 30 30" style="enable-background:new 0 0 30 30;" xml:space="preserve">
<path d="M21,6c-1.938,0-3.871,0.833-5,1.424v9.162l2.293-2.293c0.391-0.391,1.023-0.391,1.414,0s0.391,1.023,0,1.414l-4,4
	C15.512,19.902,15.256,20,15,20s-0.512-0.098-0.707-0.293l-4-4c-0.391-0.391-0.391-1.023,0-1.414s1.023-0.391,1.414,0L14,16.586
	V7.424C12.871,6.833,10.938,6,9,6c-3.866,0-7,3.134-7,7c0,8,13,14,13,14s13-6,13-14C28,9.134,24.866,6,21,6z"/>
<path d="M16,7.424V2c0-0.552-0.448-1-1-1s-1,0.448-1,1v5.424C14.619,7.748,15,8,15,8S15.381,7.748,16,7.424z"/>
</svg>
