<?xml version="1.0" encoding="iso-8859-1"?>
<!-- Generator: Adobe Illustrator 21.1.0, SVG Export Plug-In . SVG Version: 6.00 Build 0)  -->
<svg version="1.1" id="Layer_1" xmlns="http://www.w3.org/2000/svg" xmlns:xlink="http://www.w3.org/1999/xlink" x="0px" y="0px"
	 viewBox="0 0 30 30" style="enable-background:new 0 0 30 30;" xml:space="preserve">
<path d="M24.816,16.874c-0.073,0.383-0.162,0.76-0.277,1.126h-3.72C20.933,17.045,21,16.046,21,15c0-0.28-0.016-0.549-0.026-0.823
	c-0.197-0.235-0.642-0.62-0.985-0.915c-0.36-0.31-0.763-0.663-1.17-1.057C18.932,13.087,19,14.019,19,15
	c0,1.055-0.073,2.061-0.202,3h-7.597C11.073,17.061,11,16.055,11,15s0.073-2.061,0.202-3h7.411c-0.553-0.56-1.092-1.222-1.543-2
	h-5.484C12.345,6.961,13.722,5,15,5c0.341,0,0.688,0.149,1.03,0.411c0.059-0.806,0.237-1.578,0.518-2.3C16.04,3.046,15.526,3,15,3
	C8.383,3,3,8.383,3,15s5.383,12,12,12s12-5.383,12-12c0-0.216-0.021-0.426-0.032-0.639C26.821,15.569,25.959,16.548,24.816,16.874z
	 M11.062,5.811C10.398,6.939,9.868,8.362,9.512,10H6.353C7.43,8.146,9.078,6.665,11.062,5.811z M5,15c0-1.045,0.163-2.052,0.461-3
	h3.72C9.067,12.955,9,13.954,9,15s0.067,2.045,0.181,3h-3.72C5.163,17.052,5,16.045,5,15z M6.353,20h3.159
	c0.356,1.638,0.885,3.061,1.549,4.189C9.078,23.335,7.43,21.854,6.353,20z M15,25c-1.278,0-2.655-1.961-3.414-5h6.828
	C17.655,23.039,16.278,25,15,25z M18.938,24.189c0.664-1.128,1.193-2.551,1.549-4.189h3.159
	C22.57,21.854,20.923,23.335,18.938,24.189z"/>
<g>
	<path d="M24,0c-3.314,0-6,2.686-6,6c0,4.792,5,6,5,8c0,0.549,0.448,1,1,1s1-0.451,1-1c0-2,5-3.208,5-8C30,2.686,27.314,0,24,0z
		 M24,8c-1.105,0-2-0.895-2-2c0-1.105,0.895-2,2-2s2,0.895,2,2C26,7.105,25.105,8,24,8z"/>
</g>
</svg>
