<?xml version="1.0" encoding="iso-8859-1"?>
<!-- Generator: Adobe Illustrator 21.1.0, SVG Export Plug-In . SVG Version: 6.00 Build 0)  -->
<svg version="1.1" id="Layer_1" xmlns="http://www.w3.org/2000/svg" xmlns:xlink="http://www.w3.org/1999/xlink" x="0px" y="0px"
	 viewBox="0 0 30 30" style="enable-background:new 0 0 30 30;" xml:space="preserve">
<line style="fill:none;stroke:#000000;stroke-width:2;stroke-linecap:round;stroke-linejoin:round;stroke-miterlimit:10;" x1="22" y1="4" x2="22" y2="1"/>
<path d="M9,2C7.895,2,7,2.895,7,4v22c0,1.105,0.895,2,2,2h12c1.105,0,2-0.895,2-2V2H9z M19,16c-0.552,0-1-0.448-1-1
	c0-0.552,0.448-1,1-1s1,0.448,1,1C20,15.552,19.552,16,19,16z M15,16c-0.552,0-1-0.448-1-1c0-0.552,0.448-1,1-1s1,0.448,1,1
	C16,15.552,15.552,16,15,16z M11,16c-0.552,0-1-0.448-1-1c0-0.552,0.448-1,1-1s1,0.448,1,1C12,15.552,11.552,16,11,16z M19,20
	c-0.552,0-1-0.448-1-1c0-0.552,0.448-1,1-1s1,0.448,1,1C20,19.552,19.552,20,19,20z M15,20c-0.552,0-1-0.448-1-1
	c0-0.552,0.448-1,1-1s1,0.448,1,1C16,19.552,15.552,20,15,20z M11,20c-0.552,0-1-0.448-1-1c0-0.552,0.448-1,1-1s1,0.448,1,1
	C12,19.552,11.552,20,11,20z M19,24c-0.552,0-1-0.448-1-1c0-0.552,0.448-1,1-1s1,0.448,1,1C20,23.552,19.552,24,19,24z M15,24
	c-0.552,0-1-0.448-1-1c0-0.552,0.448-1,1-1s1,0.448,1,1C16,23.552,15.552,24,15,24z M11,24c-0.552,0-1-0.448-1-1
	c0-0.552,0.448-1,1-1s1,0.448,1,1C12,23.552,11.552,24,11,24z M21,10H9V4h12V10z"/>
</svg>
