<?xml version="1.0" encoding="iso-8859-1"?>
<!-- Generator: Adobe Illustrator 21.1.0, SVG Export Plug-In . SVG Version: 6.00 Build 0)  -->
<svg version="1.1" id="Layer_1" xmlns="http://www.w3.org/2000/svg" xmlns:xlink="http://www.w3.org/1999/xlink" x="0px" y="0px"
	 viewBox="0 0 30 30" style="enable-background:new 0 0 30 30;" xml:space="preserve">
<path d="M27.485,11.621L27,11.5v5l0.485-0.121c0.89-0.223,1.515-1.023,1.515-1.94v-0.877C29,12.644,28.375,11.844,27.485,11.621z"/>
<polygon points="11,9 11,19 24,23 24,5 "/>
<path d="M9,9.2L2.801,9.82C1.779,9.922,1,10.782,1,11.81v4.38c0,1.028,0.779,1.888,1.801,1.99L9,18.8V9.2z"/>
<path d="M4.545,14.412L6.38,25.168C6.461,25.649,6.878,26,7.365,26H8c0.552,0,1-0.448,1-1l-0.003-7.112L4.545,14.412z"/>
<path d="M23.5,24L23.5,24c0.828,0,1.5-0.672,1.5-1.5v-17C25,4.672,24.328,4,23.5,4h0C22.672,4,22,4.672,22,5.5v17
	C22,23.328,22.672,24,23.5,24z"/>
</svg>
