<?xml version="1.0" encoding="iso-8859-1"?>
<!-- Generator: Adobe Illustrator 21.1.0, SVG Export Plug-In . SVG Version: 6.00 Build 0)  -->
<svg version="1.1" id="Layer_1" xmlns="http://www.w3.org/2000/svg" xmlns:xlink="http://www.w3.org/1999/xlink" x="0px" y="0px"
	 viewBox="0 0 30 30" style="enable-background:new 0 0 30 30;" xml:space="preserve">
<path d="M21,4H9V3c0-0.552,0.448-1,1-1h10c0.552,0,1,0.448,1,1V4z"/>
<path d="M9,5v2.092c0,0.592,0.175,1.171,0.504,1.664l0.824,1.237C10.766,10.649,11,11.421,11,12.211V26c0,1.105,0.895,2,2,2h4
	c1.105,0,2-0.895,2-2V12.211c0-0.79,0.234-1.562,0.672-2.219l0.824-1.237C20.825,8.263,21,7.684,21,7.092V5H9z M15,18L15,18
	c-1.105,0-2-0.895-2-2v-2c0-1.105,0.895-2,2-2h0c1.105,0,2,0.895,2,2v2C17,17.105,16.105,18,15,18z"/>
<circle cx="15" cy="16" r="1"/>
</svg>
