<?xml version="1.0" encoding="iso-8859-1"?>
<!-- Generator: Adobe Illustrator 21.1.0, SVG Export Plug-In . SVG Version: 6.00 Build 0)  -->
<svg version="1.1" id="Layer_1" xmlns="http://www.w3.org/2000/svg" xmlns:xlink="http://www.w3.org/1999/xlink" x="0px" y="0px"
	 viewBox="0 0 30 30" style="enable-background:new 0 0 30 30;" xml:space="preserve">
<path d="M22,2H8C6.895,2,6,2.895,6,4v22c0,1.105,0.895,2,2,2h14c1.105,0,2-0.895,2-2V4C24,2.895,23.105,2,22,2z M15,20.5
	c-0.828,0-1.5-0.672-1.5-1.5c0-0.828,0.672-1.5,1.5-1.5s1.5,0.672,1.5,1.5C16.5,19.828,15.828,20.5,15,20.5z M11,13
	c-0.552,0-1-0.448-1-1c0-0.552,0.448-1,1-1s1,0.448,1,1C12,12.552,11.552,13,11,13z M15,25c-0.552,0-1-0.448-1-1
	c0-0.552,0.448-1,1-1s1,0.448,1,1C16,24.552,15.552,25,15,25z M11,7c-0.552,0-1-0.448-1-1c0-0.552,0.448-1,1-1s1,0.448,1,1
	C12,6.552,11.552,7,11,7z M22,14H8v-4h14V14z M22,8H8V4h14V8z"/>
</svg>
