<?xml version="1.0" encoding="iso-8859-1"?>
<!-- Generator: Adobe Illustrator 21.1.0, SVG Export Plug-In . SVG Version: 6.00 Build 0)  -->
<svg version="1.1" id="Layer_1" xmlns="http://www.w3.org/2000/svg" xmlns:xlink="http://www.w3.org/1999/xlink" x="0px" y="0px"
	 viewBox="0 0 30 30" style="enable-background:new 0 0 30 30;" xml:space="preserve">
<path d="M27,7h-3v3.5c0.862,0,1.375,0.787,1.375,1.809c0,0.51-0.282,1.044-0.282,1.044s0.157,0.053,0.157,0.404
	c0,0.506-0.409,0.789-0.409,0.789C24.784,15.051,24,15.789,24,15.789v0.842c0.421,1.263,3,0.421,3,3.368h-3v3h3c1.105,0,2-0.895,2-2
	V9C29,7.895,28.105,7,27,7z"/>
<path d="M20,5H10C8.895,5,8,5.895,8,7v16c0,1.105,0.895,2,2,2h10c1.105,0,2-0.895,2-2V7C22,5.895,21.105,5,20,5z M11,20
	c0-2.938,2.579-2.105,3-3.368v-0.842c0,0-0.784-0.739-0.841-1.243c0,0-0.409-0.153-0.409-0.789c0-0.328,0.157-0.404,0.157-0.404
	s-0.344-0.478-0.344-1.091C12.562,10.811,13.654,10,15,10c0.634,0,1,0.5,1,0.5c0.862,0,1.375,0.787,1.375,1.809
	c0,0.51-0.282,1.044-0.282,1.044s0.157,0.053,0.157,0.404c0,0.506-0.409,0.789-0.409,0.789C16.784,15.051,16,15.789,16,15.789v0.842
	c0.421,1.263,3,0.421,3,3.368H11z"/>
<path d="M3,20c0-2.938,2.579-2.105,3-3.368v-0.842c0,0-0.784-0.739-0.841-1.243c0,0-0.409-0.153-0.409-0.789
	c0-0.328,0.157-0.404,0.157-0.404s-0.344-0.478-0.344-1.091c0-1.066,0.591-1.782,1.438-2.09V7H3C1.895,7,1,7.895,1,9v12
	c0,1.105,0.895,2,2,2h3v-3H3z"/>
</svg>
