<?xml version="1.0" encoding="iso-8859-1"?>
<!-- Generator: Adobe Illustrator 21.1.0, SVG Export Plug-In . SVG Version: 6.00 Build 0)  -->
<svg version="1.1" id="Layer_1" xmlns="http://www.w3.org/2000/svg" xmlns:xlink="http://www.w3.org/1999/xlink" x="0px" y="0px"
	 viewBox="0 0 30 30" style="enable-background:new 0 0 30 30;" xml:space="preserve">
<line style="fill:none;stroke:#000000;stroke-width:2;stroke-linecap:round;stroke-miterlimit:10;" x1="4" y1="26" x2="6.5" y2="23.5"/>
<path d="M19,16l7.414-7.414c0.781-0.781,0.781-2.047,0-2.828l-2.172-2.172c-0.781-0.781-2.047-0.781-2.828,0L14,11L19,16z"/>
<path d="M10.761,24.239L17,18c0,0-5-5-5-5l-6.241,6.241c-0.497,0.497-0.854,1.116-1.036,1.795l-0.65,2.429l2.595,2.42l2.291-0.608
	C9.641,25.095,10.263,24.737,10.761,24.239z"/>
<path d="M25,8l1.379-1.379c0.828-0.828,0.828-2.17,0-2.998l-0.002-0.002c-0.828-0.828-2.17-0.828-2.998,0L22,5L25,8z"/>
<circle cx="6" cy="24" r="2"/>
<path style="fill:none;stroke:#000000;stroke-width:2;stroke-linecap:round;stroke-miterlimit:10;" d="M22,5l-1.285-1.285
	c-0.947-0.947-2.482-0.947-3.429,0L17,4c-1,1-2.5,3.5-4,5"/>
</svg>
