<?xml version="1.0" encoding="iso-8859-1"?>
<!-- Generator: Adobe Illustrator 21.1.0, SVG Export Plug-In . SVG Version: 6.00 Build 0)  -->
<svg version="1.1" id="Layer_1" xmlns="http://www.w3.org/2000/svg" xmlns:xlink="http://www.w3.org/1999/xlink" x="0px" y="0px"
	 viewBox="0 0 30 30" style="enable-background:new 0 0 30 30;" xml:space="preserve">
<path d="M24,7H6V6c0-1.105,0.895-2,2-2h19c1.105,0,2,0.895,2,2v14c0,1.105-0.895,2-2,2h-1V9C26,7.895,25.105,7,24,7z"/>
<path d="M22,9H3c-1.105,0-2,0.895-2,2v13c0,1.105,0.895,2,2,2h19c1.105,0,2-0.895,2-2V11C24,9.895,23.105,9,22,9z M16,19h-3v3
	c0,0.552-0.448,1-1,1h0c-0.552,0-1-0.448-1-1v-3H8c-0.552,0-1-0.448-1-1v0c0-0.552,0.448-1,1-1h3v-3c0-0.552,0.448-1,1-1h0
	c0.552,0,1,0.448,1,1v3h3c0.552,0,1,0.448,1,1v0C17,18.552,16.552,19,16,19z"/>
</svg>
