<?xml version="1.0" encoding="iso-8859-1"?>
<!-- Generator: Adobe Illustrator 21.1.0, SVG Export Plug-In . SVG Version: 6.00 Build 0)  -->
<svg version="1.1" id="Layer_1" xmlns="http://www.w3.org/2000/svg" xmlns:xlink="http://www.w3.org/1999/xlink" x="0px" y="0px"
	 viewBox="0 0 30 30" style="enable-background:new 0 0 30 30;" xml:space="preserve">
<path d="M4,25h2l0,0c1.281,1.281,3.017,2,4.828,2H21l2-2v-4l0.5-10H14c0,0,1-3.266,1-4c0-2.251,0-5-3-5c-1,0-1,0-1,0l-0.501,3.491
	L8.132,9.894C7.435,11.191,6.082,12,4.609,12H4V25z"/>
<circle cx="23.5" cy="13.5" r="2.5"/>
<circle cx="22.5" cy="21.5" r="2.5"/>
<circle cx="23.5" cy="17.5" r="2.5"/>
<circle cx="21" cy="25" r="2"/>
<circle cx="21" cy="25" r="2"/>
</svg>
