<?xml version="1.0" encoding="iso-8859-1"?>
<!-- Generator: Adobe Illustrator 21.1.0, SVG Export Plug-In . SVG Version: 6.00 Build 0)  -->
<svg version="1.1" id="Layer_1" xmlns="http://www.w3.org/2000/svg" xmlns:xlink="http://www.w3.org/1999/xlink" x="0px" y="0px"
	 viewBox="0 0 30 30" style="enable-background:new 0 0 30 30;" xml:space="preserve">
<g>
	<path d="M13.98,20.194c-0.046,0.959-0.421,1.904-1.151,2.635l-2,2c-1.56,1.56-4.098,1.56-5.657,0s-1.56-4.098,0-5.657l2-2
		c0.78-0.78,1.804-1.169,2.829-1.169s2.049,0.39,2.829,1.169l1.414-1.414C13.109,14.624,11.603,14,10,14s-3.109,0.624-4.243,1.757
		l-2,2C2.624,18.891,2,20.397,2,22s0.624,3.109,1.757,4.243S6.397,28,8,28s3.109-0.624,4.243-1.757l2-2
		C15.376,23.109,16,21.603,16,20c0-0.551-0.079-1.088-0.221-1.605L13.98,20.194z"/>
	<path d="M26.243,3.757C25.109,2.624,23.603,2,22,2s-3.109,0.624-4.243,1.757l-2,2C14.624,6.891,14,8.397,14,10
		s0.624,3.109,1.757,4.243l1.414-1.414c-1.56-1.56-1.56-4.098,0-5.657l2-2c0.78-0.78,1.804-1.169,2.829-1.169
		s2.049,0.39,2.829,1.169c1.56,1.56,1.56,4.098,0,5.657l-2,2c-0.73,0.73-1.676,1.105-2.635,1.151l-1.799,1.799
		C18.912,15.921,19.449,16,20,16c1.603,0,3.109-0.624,4.243-1.757l2-2C27.376,11.109,28,9.603,28,8S27.376,4.891,26.243,3.757z"/>
</g>
<line style="fill:none;stroke:#000000;stroke-width:2;stroke-linecap:round;stroke-miterlimit:10;" x1="10" y1="20" x2="20" y2="10"/>
</svg>
