<?xml version="1.0" encoding="iso-8859-1"?>
<!-- Generator: Adobe Illustrator 21.1.0, SVG Export Plug-In . SVG Version: 6.00 Build 0)  -->
<svg version="1.1" id="Layer_1" xmlns="http://www.w3.org/2000/svg" xmlns:xlink="http://www.w3.org/1999/xlink" x="0px" y="0px"
	 viewBox="0 0 30 30" style="enable-background:new 0 0 30 30;" xml:space="preserve">
<path d="M23,3H8C6.895,3,6,3.895,6,5v20c0,1.105,0.895,2,2,2h15c1.105,0,2-0.895,2-2V5C25,3.895,24.105,3,23,3z M10.5,16
	c0.828,0,1.5,0.672,1.5,1.5S11.328,19,10.5,19S9,18.328,9,17.5S9.672,16,10.5,16z M9,12.5c0-0.828,0.672-1.5,1.5-1.5
	s1.5,0.672,1.5,1.5S11.328,14,10.5,14S9,13.328,9,12.5z M15.5,24h-5C9.672,24,9,23.328,9,22.5S9.672,21,10.5,21h5
	c0.828,0,1.5,0.672,1.5,1.5S16.328,24,15.5,24z M15.5,19c-0.828,0-1.5-0.672-1.5-1.5s0.672-1.5,1.5-1.5s1.5,0.672,1.5,1.5
	S16.328,19,15.5,19z M15.5,14c-0.828,0-1.5-0.672-1.5-1.5s0.672-1.5,1.5-1.5s1.5,0.672,1.5,1.5S16.328,14,15.5,14z M20.5,24
	c-0.828,0-1.5-0.672-1.5-1.5s0.672-1.5,1.5-1.5s1.5,0.672,1.5,1.5S21.328,24,20.5,24z M20.5,19c-0.828,0-1.5-0.672-1.5-1.5
	s0.672-1.5,1.5-1.5s1.5,0.672,1.5,1.5S21.328,19,20.5,19z M20.5,14c-0.828,0-1.5-0.672-1.5-1.5s0.672-1.5,1.5-1.5s1.5,0.672,1.5,1.5
	S21.328,14,20.5,14z M22,9H9V6h13V9z"/>
</svg>
