<?xml version="1.0" encoding="iso-8859-1"?>
<!-- Generator: Adobe Illustrator 21.1.0, SVG Export Plug-In . SVG Version: 6.00 Build 0)  -->
<svg version="1.1" id="Layer_1" xmlns="http://www.w3.org/2000/svg" xmlns:xlink="http://www.w3.org/1999/xlink" x="0px" y="0px"
	 viewBox="0 0 30 30" style="enable-background:new 0 0 30 30;" xml:space="preserve">
<path d="M24,2H4v26h20c1.105,0,2-0.895,2-2V4C26,2.895,25.105,2,24,2z M9,21c0-3.792,4-2.708,4.5-4.333v-1.083
	c-0.225-0.121-0.868-0.951-0.936-1.599c-0.177-0.015-0.455-0.191-0.537-0.886c-0.044-0.373,0.131-0.583,0.237-0.649
	c0,0-0.264-0.602-0.264-1.199C12,9.474,12.879,8,15,8c1.145,0,1.5,0.812,1.5,0.812c1.023,0,1.5,1.122,1.5,2.438
	c0,0.656-0.264,1.199-0.264,1.199c0.106,0.066,0.281,0.276,0.237,0.649c-0.082,0.695-0.36,0.871-0.537,0.886
	c-0.068,0.648-0.711,1.478-0.936,1.599v1.083C17,18.292,21,17.208,21,21H9z"/>
</svg>
