<?xml version="1.0" encoding="iso-8859-1"?>
<!-- Generator: Adobe Illustrator 21.1.0, SVG Export Plug-In . SVG Version: 6.00 Build 0)  -->
<svg version="1.1" id="Layer_1" xmlns="http://www.w3.org/2000/svg" xmlns:xlink="http://www.w3.org/1999/xlink" x="0px" y="0px"
	 viewBox="0 0 30 30" style="enable-background:new 0 0 30 30;" xml:space="preserve">
<path d="M27,26H8c-1.105,0-2-0.895-2-2V11c0-1.105,0.895-2,2-2h19c1.105,0,2,0.895,2,2v13C29,25.105,28.105,26,27,26z"/>
<path d="M6,7h18V6c0-1.105-0.895-2-2-2H3C1.895,4,1,4.895,1,6v14c0,1.105,0.895,2,2,2h1V9C4,7.895,4.895,7,6,7z"/>
</svg>
