<?xml version="1.0" encoding="iso-8859-1"?>
<!-- Generator: Adobe Illustrator 21.1.0, SVG Export Plug-In . SVG Version: 6.00 Build 0)  -->
<svg version="1.1" id="Layer_1" xmlns="http://www.w3.org/2000/svg" xmlns:xlink="http://www.w3.org/1999/xlink" x="0px" y="0px"
	 viewBox="0 0 30 30" style="enable-background:new 0 0 30 30;" xml:space="preserve">
<path d="M15,5C8.925,5,4,9.925,4,16c0,6.075,4.925,11,11,11s11-4.925,11-11C26,9.925,21.075,5,15,5z M16,17H9.995
	C9.445,17,9,16.555,9,16.005v-0.011C9,15.445,9.445,15,9.995,15H14V8.995C14,8.445,14.445,8,14.995,8h0.011
	C15.555,8,16,8.445,16,8.995V17z"/>
<line style="fill:none;stroke:#000000;stroke-width:2;stroke-linecap:round;stroke-miterlimit:10;" x1="20" y1="22" x2="24" y2="26"/>
<line style="fill:none;stroke:#000000;stroke-width:2;stroke-linecap:round;stroke-miterlimit:10;" x1="10" y1="22" x2="6" y2="26"/>
<path d="M26.701,10.701c1.788-2.071,1.721-5.191-0.245-7.156c-1.966-1.966-5.085-2.032-7.156-0.245L26.701,10.701z"/>
<path d="M10.689,3.288C8.617,1.5,5.498,1.567,3.532,3.532C1.567,5.498,1.5,8.617,3.288,10.689L10.689,3.288z"/>
</svg>
