<?xml version="1.0" encoding="iso-8859-1"?>
<!-- Generator: Adobe Illustrator 21.1.0, SVG Export Plug-In . SVG Version: 6.00 Build 0)  -->
<svg version="1.1" id="Layer_1" xmlns="http://www.w3.org/2000/svg" xmlns:xlink="http://www.w3.org/1999/xlink" x="0px" y="0px"
	 viewBox="0 0 30 30" style="enable-background:new 0 0 30 30;" xml:space="preserve">
<path d="M22,4h-2v6c0,0.552-0.448,1-1,1h-9c-0.552,0-1-0.448-1-1V4H6C4.895,4,4,4.895,4,6v18c0,1.105,0.895,2,2,2h18
	c1.105,0,2-0.895,2-2V8L22,4z M22,24H8v-6c0-1.105,0.895-2,2-2h10c1.105,0,2,0.895,2,2V24z"/>
<rect x="16" y="4" width="2" height="5"/>
</svg>
