<?xml version="1.0" encoding="iso-8859-1"?>
<!-- Generator: Adobe Illustrator 21.1.0, SVG Export Plug-In . SVG Version: 6.00 Build 0)  -->
<svg version="1.1" id="Layer_1" xmlns="http://www.w3.org/2000/svg" xmlns:xlink="http://www.w3.org/1999/xlink" x="0px" y="0px"
	 viewBox="0 0 30 30" style="enable-background:new 0 0 30 30;" xml:space="preserve">
<path d="M18,5c-1.105,0-2,0.895-2,2v20c0-1.105,0.895-2,2-2h8c1.105,0,2-0.895,2-2V7c0-1.105-0.895-2-2-2H18z"/>
<path d="M12,5c1.105,0,2,0.895,2,2v20c0-1.105-0.895-2-2-2H4c-1.105,0-2-0.895-2-2V7c0-1.105,0.895-2,2-2H12z"/>
</svg>
