<?xml version="1.0" encoding="iso-8859-1"?>
<!-- Generator: Adobe Illustrator 21.1.0, SVG Export Plug-In . SVG Version: 6.00 Build 0)  -->
<svg version="1.1" id="Layer_1" xmlns="http://www.w3.org/2000/svg" xmlns:xlink="http://www.w3.org/1999/xlink" x="0px" y="0px"
	 viewBox="0 0 30 30" style="enable-background:new 0 0 30 30;" xml:space="preserve">
<path d="M21.225,17.889c-0.406-0.238-0.905-0.233-1.309,0.007l-2.046,1.219c-0.458,0.273-1.03,0.241-1.45-0.087
	c-0.726-0.567-1.895-1.521-2.912-2.538c-1.017-1.017-1.971-2.186-2.538-2.912c-0.328-0.42-0.36-0.992-0.087-1.45l1.219-2.046
	c0.241-0.404,0.243-0.907,0.005-1.313L9.105,3.641c-0.291-0.496-0.869-0.74-1.428-0.603C7.134,3.17,6.429,3.492,5.69,4.232
	c-2.314,2.314-3.543,6.217,5.159,14.919s12.604,7.474,14.919,5.159c0.741-0.741,1.062-1.447,1.195-1.991
	c0.135-0.558-0.105-1.132-0.6-1.422C25.127,20.174,22.461,18.613,21.225,17.889z"/>
</svg>
