<?xml version="1.0" encoding="iso-8859-1"?>
<!-- Generator: Adobe Illustrator 21.1.0, SVG Export Plug-In . SVG Version: 6.00 Build 0)  -->
<svg version="1.1" id="Layer_1" xmlns="http://www.w3.org/2000/svg" xmlns:xlink="http://www.w3.org/1999/xlink" x="0px" y="0px"
	 viewBox="0 0 30 30" style="enable-background:new 0 0 30 30;" xml:space="preserve">
<path d="M3.158,26.134C6.066,23.557,5,21,5,21l7,2c0,0-3.663,3.721-8.417,3.99L3.158,26.134z"/>
<circle cx="3.5" cy="26.5" r="0.5"/>
<path d="M15,3C7.82,3,2,7.925,2,14s5.82,11,13,11s13-4.925,13-11S22.18,3,15,3z M16,20h-2v-7h2V20z M15,10.5
	c-0.828,0-1.5-0.672-1.5-1.5s0.672-1.5,1.5-1.5s1.5,0.672,1.5,1.5S15.828,10.5,15,10.5z"/>
</svg>
