<?xml version="1.0" encoding="iso-8859-1"?>
<!-- Generator: Adobe Illustrator 21.1.0, SVG Export Plug-In . SVG Version: 6.00 Build 0)  -->
<svg version="1.1" id="Layer_1" xmlns="http://www.w3.org/2000/svg" xmlns:xlink="http://www.w3.org/1999/xlink" x="0px" y="0px"
	 viewBox="0 0 30 30" style="enable-background:new 0 0 30 30;" xml:space="preserve">
<polygon points="15.472,3.12 15,4 15,11 29,11 29.462,10.114 "/>
<polygon points="14.528,3.12 15,4 15,11 1,11 0.538,10.114 "/>
<polygon points="14.528,18.88 15,18 15,11 1,11 0.538,11.886 "/>
<polygon points="15.472,18.88 15,18 15,11 29,11 29.462,11.886 "/>
<circle cx="29" cy="11" r="1"/>
<circle cx="1" cy="11" r="1"/>
<circle cx="15" cy="18" r="1"/>
<circle cx="15" cy="4" r="1"/>
<g>
	<path d="M16.366,20.669c-0.084,0.042-0.169,0.077-0.255,0.106C15.749,20.924,15.377,21,15,21c-0.376,0-0.747-0.075-1.107-0.224
		c-0.087-0.029-0.174-0.065-0.259-0.108L6,16.852V21c0,2.761,4.029,5,9,5s9-2.239,9-5v-4.148L16.366,20.669z"/>
	<path d="M27,15.353V26c0,0.553,0.448,1,1,1s1-0.447,1-1V14.353L27,15.353z"/>
</g>
<path d="M30,26c0,1.105-2,4-2,4s-2-2.895-2-4s0.895-2,2-2S30,24.895,30,26z"/>
</svg>
