<?xml version="1.0" encoding="iso-8859-1"?>
<!-- Generator: Adobe Illustrator 21.1.0, SVG Export Plug-In . SVG Version: 6.00 Build 0)  -->
<svg version="1.1" id="Layer_1" xmlns="http://www.w3.org/2000/svg" xmlns:xlink="http://www.w3.org/1999/xlink" x="0px" y="0px"
	 viewBox="0 0 30 30" style="enable-background:new 0 0 30 30;" xml:space="preserve">
<line style="fill:none;stroke:#000000;stroke-width:2;stroke-linecap:round;stroke-linejoin:round;stroke-miterlimit:10;" x1="3" y1="8" x2="5" y2="8"/>
<line style="fill:none;stroke:#000000;stroke-width:2;stroke-linecap:round;stroke-linejoin:round;stroke-miterlimit:10;" x1="3" y1="12" x2="5" y2="12"/>
<line style="fill:none;stroke:#000000;stroke-width:2;stroke-linecap:round;stroke-linejoin:round;stroke-miterlimit:10;" x1="3" y1="16" x2="5" y2="16"/>
<line style="fill:none;stroke:#000000;stroke-width:2;stroke-linecap:round;stroke-linejoin:round;stroke-miterlimit:10;" x1="3" y1="20" x2="5" y2="20"/>
<g>
	<path d="M14.89,13.195c-0.898,0-1.432,0.72-1.432,1.932c0,1.203,0.534,1.932,1.424,1.932c0.907,0,1.475-0.737,1.475-1.932
		S15.788,13.195,14.89,13.195z"/>
	<path d="M24,2H4v7c0.552,0,1,0.447,1,1s-0.448,1-1,1v2c0.552,0,1,0.447,1,1s-0.448,1-1,1v2c0.552,0,1,0.447,1,1s-0.448,1-1,1v2
		c0.552,0,1,0.447,1,1s-0.448,1-1,1v5h20c1.105,0,2-0.895,2-2V4C26,2.895,25.105,2,24,2z M18.669,18.678
		c-1.059,0-1.83-0.508-2.017-1.322H16.5c-0.356,0.856-1.051,1.297-2.034,1.297c-1.763,0-2.932-1.424-2.932-3.576
		c0-2.059,1.153-3.458,2.847-3.458c0.907,0,1.644,0.441,1.983,1.195h0.153v-1.009h1.712v4.492c0,0.602,0.297,0.949,0.814,0.949
		c0.856,0,1.407-1.085,1.407-2.805c0-3.068-2.119-5.068-5.339-5.068c-3.28,0-5.559,2.356-5.559,5.737c0,3.441,2.28,5.61,5.881,5.61
		c0.907,0,1.83-0.11,2.305-0.28v1.381c-0.661,0.195-1.534,0.305-2.432,0.305C10.89,22.127,8,19.322,8,15.068
		C8,10.881,10.924,8,15.161,8C19.22,8,22,10.559,22,14.297C22,16.992,20.72,18.678,18.669,18.678z"/>
</g>
</svg>
