<?xml version="1.0" encoding="iso-8859-1"?>
<!-- Generator: Adobe Illustrator 21.1.0, SVG Export Plug-In . SVG Version: 6.00 Build 0)  -->
<svg version="1.1" id="Layer_1" xmlns="http://www.w3.org/2000/svg" xmlns:xlink="http://www.w3.org/1999/xlink" x="0px" y="0px"
	 viewBox="0 0 30 30" style="enable-background:new 0 0 30 30;" xml:space="preserve">
<path d="M15,2C8.925,2,4,6.925,4,13c0,7.234,7.152,10.697,8.048,11.503c0.915,0.823,1.671,2.668,1.976,3.714
	c0.148,0.508,0.564,0.765,0.976,0.776c0.413-0.012,0.828-0.269,0.976-0.776c0.305-1.046,1.061-2.89,1.976-3.714
	C18.848,23.697,26,20.234,26,13C26,6.925,21.075,2,15,2z M15,16c-1.657,0-3-1.343-3-3s1.343-3,3-3s3,1.343,3,3S16.657,16,15,16z"/>
</svg>
