<?xml version="1.0" encoding="iso-8859-1"?>
<!-- Generator: Adobe Illustrator 21.1.0, SVG Export Plug-In . SVG Version: 6.00 Build 0)  -->
<svg version="1.1" id="Layer_1" xmlns="http://www.w3.org/2000/svg" xmlns:xlink="http://www.w3.org/1999/xlink" x="0px" y="0px"
	 viewBox="0 0 30 30" style="enable-background:new 0 0 30 30;" xml:space="preserve">
<path d="M4,10v14c0,1.105,0.895,2,2,2h18c1.105,0,2-0.895,2-2V10H4z M18,15h-6c-0.552,0-1-0.448-1-1c0-0.552,0.448-1,1-1h6
	c0.552,0,1,0.448,1,1C19,14.552,18.552,15,18,15z"/>
<path d="M27,8V6c0-1.105-0.895-2-2-2H5C3.895,4,3,4.895,3,6v2H27z"/>
</svg>
