<?xml version="1.0" encoding="iso-8859-1"?>
<!-- Generator: Adobe Illustrator 21.1.0, SVG Export Plug-In . SVG Version: 6.00 Build 0)  -->
<svg version="1.1" id="Layer_1" xmlns="http://www.w3.org/2000/svg" xmlns:xlink="http://www.w3.org/1999/xlink" x="0px" y="0px"
	 viewBox="0 0 30 30" style="enable-background:new 0 0 30 30;" xml:space="preserve">
<g>
	<g>
		<path d="M26,9c0-0.419-0.259-0.776-0.625-0.924l-9.459-4.854h-0.018C15.627,3.085,15.325,3,15,3s-0.627,0.085-0.898,0.222h-0.018
			L4.625,8.076C4.259,8.224,4,8.581,4,9c0,0.416,0.255,0.772,0.617,0.923v0.02l9.474,4.838l0.009-0.004
			C14.372,14.915,14.674,15,15,15s0.628-0.085,0.9-0.223l0.009,0.004l9.474-4.838v-0.02C25.745,9.772,26,9.416,26,9z"/>
	</g>
</g>
<path d="M25.375,14.076l-1.851-0.95c-2.905,1.487-6.87,3.511-6.916,3.528C16.093,16.884,15.553,17,15,17
	c-0.555,0-1.096-0.117-1.613-0.348c-0.044-0.016-4.005-2.038-6.911-3.526l-1.851,0.95C4.259,14.224,4,14.581,4,15
	c0,0.416,0.255,0.772,0.617,0.923v0.02l9.474,4.838l0.009-0.004C14.372,20.915,14.674,21,15,21s0.628-0.085,0.9-0.223l0.009,0.004
	l9.474-4.838v-0.02C25.745,15.772,26,15.416,26,15C26,14.581,25.741,14.224,25.375,14.076z"/>
<path d="M25.375,20.076l-1.851-0.95c-2.905,1.487-6.87,3.511-6.916,3.528C16.093,22.884,15.553,23,15,23
	c-0.555,0-1.096-0.117-1.613-0.348c-0.044-0.016-4.005-2.038-6.911-3.526l-1.851,0.95C4.259,20.224,4,20.581,4,21
	c0,0.416,0.255,0.772,0.617,0.923v0.02l9.474,4.838l0.009-0.004C14.372,26.915,14.674,27,15,27s0.628-0.085,0.9-0.223l0.009,0.004
	l9.474-4.838v-0.02C25.745,21.772,26,21.416,26,21C26,20.581,25.741,20.224,25.375,20.076z"/>
</svg>
