<?xml version="1.0" encoding="iso-8859-1"?>
<!-- Generator: Adobe Illustrator 21.1.0, SVG Export Plug-In . SVG Version: 6.00 Build 0)  -->
<svg version="1.1" id="Layer_1" xmlns="http://www.w3.org/2000/svg" xmlns:xlink="http://www.w3.org/1999/xlink" x="0px" y="0px"
	 viewBox="0 0 30 30" style="enable-background:new 0 0 30 30;" xml:space="preserve">
<path d="M26,5H4C2.895,5,2,5.895,2,7v9c0,1.105,0.895,2,2,2h22c1.105,0,2-0.895,2-2V7C28,5.895,27.105,5,26,5z M15,16
	c-0.552,0-1-0.448-1-1c0-0.552,0.448-1,1-1s1,0.448,1,1C16,15.552,15.552,16,15,16z"/>
<path d="M26,20H4c-0.732,0-1.409-0.212-2-0.556V23c0,1.105,0.895,2,2,2h22c1.105,0,2-0.895,2-2v-3.556
	C27.409,19.788,26.732,20,26,20z"/>
<path d="M18,6h-6V5c0-1.105,0.895-2,2-2h2c1.105,0,2,0.895,2,2V6z"/>
</svg>
