<?xml version="1.0" encoding="iso-8859-1"?>
<!-- Generator: Adobe Illustrator 21.1.0, SVG Export Plug-In . SVG Version: 6.00 Build 0)  -->
<svg version="1.1" id="Layer_1" xmlns="http://www.w3.org/2000/svg" xmlns:xlink="http://www.w3.org/1999/xlink" x="0px" y="0px"
	 viewBox="0 0 30 30" style="enable-background:new 0 0 30 30;" xml:space="preserve">
<circle style="fill:none;stroke:#000000;stroke-width:2;stroke-miterlimit:10;" cx="15" cy="15" r="11"/>
<path d="M6,16h3l3,3l-0.035,4.036L15,26c0,0-11-1-11-11c0-8,8-11,8-11v3h2V4h2v5l-2,1l-1-1h-2v2l-5,3V16z"/>
<path d="M18,26l3-6l-1-2h-2l-2-2v-2l2-2h2l2,1l1-2l-3-1l-2,1V9l1-1h1V7l1.785-0.607C21.785,6.393,26,10,26,15C26,23,18,26,18,26z"/>
</svg>
