<?xml version="1.0" encoding="iso-8859-1"?>
<!-- Generator: Adobe Illustrator 21.1.0, SVG Export Plug-In . SVG Version: 6.00 Build 0)  -->
<svg version="1.1" id="Layer_1" xmlns="http://www.w3.org/2000/svg" xmlns:xlink="http://www.w3.org/1999/xlink" x="0px" y="0px"
	 viewBox="0 0 30 30" style="enable-background:new 0 0 30 30;" xml:space="preserve">
<circle cx="15" cy="14" r="3"/>
<g>
	<g>
		<path d="M17.967,22.433h-0.011C17.977,22.29,18,22.148,18,22c0-1.657-1.343-3-3-3s-3,1.343-3,3c0,0.148,0.023,0.29,0.044,0.433
			h-0.011l0.027,0.159c0.001,0.006,0.002,0.013,0.003,0.019l0.952,5.627l0.009-0.001C13.143,29.229,13.977,30,15,30
			s1.857-0.771,1.976-1.763l0.009,0.001l0.952-5.627c0.001-0.006,0.002-0.013,0.003-0.019L17.967,22.433z"/>
	</g>
</g>
<path style="fill:none;stroke:#000000;stroke-width:2;stroke-linecap:round;stroke-miterlimit:10;" d="M20.536,24.64
	C24.375,22.639,27,18.629,27,14c0-6.627-5.373-12-12-12S3,7.373,3,14c0,4.629,2.625,8.639,6.465,10.641"/>
<path style="fill:none;stroke:#000000;stroke-width:2;stroke-linecap:round;stroke-miterlimit:10;" d="M20.557,19.747
	C22.061,18.293,23,16.258,23,14c0-4.418-3.582-8-8-8s-8,3.582-8,8c0,2.258,0.939,4.293,2.443,5.747"/>
</svg>
