<?xml version="1.0" encoding="iso-8859-1"?>
<!-- Generator: Adobe Illustrator 21.1.0, SVG Export Plug-In . SVG Version: 6.00 Build 0)  -->
<svg version="1.1" id="Layer_1" xmlns="http://www.w3.org/2000/svg" xmlns:xlink="http://www.w3.org/1999/xlink" x="0px" y="0px"
	 viewBox="0 0 30 30" style="enable-background:new 0 0 30 30;" xml:space="preserve">
<path d="M15,29L15,29c0.552,0,1-0.448,1-1v-4h-2v4C14,28.552,14.448,29,15,29z"/>
<path d="M6,24h8V11.414l-2.293,2.293c-0.391,0.391-1.023,0.391-1.414,0s-0.391-1.023,0-1.414l4-4C14.488,8.098,14.744,8,15,8
	s0.512,0.098,0.707,0.293l4,4c0.391,0.391,0.391,1.023,0,1.414s-1.023,0.391-1.414,0L16,11.414V24h8c1.105,0,2-0.895,2-2V5
	c0-1.105-0.895-2-2-2H6C4.895,3,4,3.895,4,5v17C4,23.105,4.895,24,6,24z"/>
</svg>
