<?xml version="1.0" encoding="iso-8859-1"?>
<!-- Generator: Adobe Illustrator 21.1.0, SVG Export Plug-In . SVG Version: 6.00 Build 0)  -->
<svg version="1.1" id="Layer_1" xmlns="http://www.w3.org/2000/svg" xmlns:xlink="http://www.w3.org/1999/xlink" x="0px" y="0px"
	 viewBox="0 0 30 30" style="enable-background:new 0 0 30 30;" xml:space="preserve">
<path d="M21,1H9C7.895,1,7,1.895,7,3v24c0,1.105,0.895,2,2,2h12c1.105,0,2-0.895,2-2V3C23,1.895,22.105,1,21,1z M15,27
	c-0.552,0-1-0.448-1-1c0-0.552,0.448-1,1-1s1,0.448,1,1C16,26.552,15.552,27,15,27z M21,24H9V4h12V24z"/>
</svg>
