<?xml version="1.0" encoding="iso-8859-1"?>
<!-- Generator: Adobe Illustrator 21.1.0, SVG Export Plug-In . SVG Version: 6.00 Build 0)  -->
<svg version="1.1" id="Layer_1" xmlns="http://www.w3.org/2000/svg" xmlns:xlink="http://www.w3.org/1999/xlink" x="0px" y="0px"
	 viewBox="0 0 30 30" style="enable-background:new 0 0 30 30;" xml:space="preserve">
<path d="M29,21c0,2.209-1.791,4-4,4s-4-1.791-4-4l4-4C27.209,17,29,18.791,29,21z"/>
<path d="M27,10c0,1.657-1.343,3-3,3l-3-3c0-1.657,1.343-3,3-3S27,8.343,27,10z"/>
<path d="M1,21c0,2.209,1.791,4,4,4s4-1.791,4-4l-4-4C2.791,17,1,18.791,1,21z"/>
<path d="M3,10c0,1.657,1.343,3,3,3l3-3c0-1.657-1.343-3-3-3S3,8.343,3,10z"/>
<path d="M5.396,7.061L3.051,9.449L1.084,20.18l6.902,3.481L9.5,22H15V6C10.931,6,5.396,7.061,5.396,7.061z M10,16H9v1
	c0,0.552-0.448,1-1,1s-1-0.448-1-1v-1H6c-0.552,0-1-0.448-1-1c0-0.552,0.448-1,1-1h1v-1c0-0.552,0.448-1,1-1s1,0.448,1,1v1h1
	c0.552,0,1,0.448,1,1C11,15.552,10.552,16,10,16z"/>
<path d="M26.949,9.449l-2.346-2.388C24.604,7.061,19.069,6,15,6v16h5.5l1.514,1.661l6.902-3.481L26.949,9.449z M22,12
	c0.552,0,1,0.448,1,1c0,0.552-0.448,1-1,1s-1-0.448-1-1C21,12.448,21.448,12,22,12z M20,16c-0.552,0-1-0.448-1-1
	c0-0.552,0.448-1,1-1s1,0.448,1,1C21,15.552,20.552,16,20,16z M22,18c-0.552,0-1-0.448-1-1c0-0.552,0.448-1,1-1s1,0.448,1,1
	C23,17.552,22.552,18,22,18z M24,16c-0.552,0-1-0.448-1-1c0-0.552,0.448-1,1-1s1,0.448,1,1C25,15.552,24.552,16,24,16z"/>
</svg>
