<?xml version="1.0" encoding="iso-8859-1"?>
<!-- Generator: Adobe Illustrator 21.1.0, SVG Export Plug-In . SVG Version: 6.00 Build 0)  -->
<svg version="1.1" id="Layer_1" xmlns="http://www.w3.org/2000/svg" xmlns:xlink="http://www.w3.org/1999/xlink" x="0px" y="0px"
	 viewBox="0 0 30 30" style="enable-background:new 0 0 30 30;" xml:space="preserve">
<path d="M4,26h4V11c0-0.552-0.448-1-1-1H5c-0.552,0-1,0.448-1,1V26z"/>
<path d="M10,26h4V14c0-0.552-0.448-1-1-1h-2c-0.552,0-1,0.448-1,1V26z"/>
<path d="M16,26h4v-9c0-0.552-0.448-1-1-1h-2c-0.552,0-1,0.448-1,1V26z"/>
<path d="M22,26h4v-6c0-0.552-0.448-1-1-1h-2c-0.552,0-1,0.448-1,1V26z"/>
<line style="fill:none;stroke:#000000;stroke-width:2;stroke-linecap:round;stroke-linejoin:round;stroke-miterlimit:10;" x1="10" y1="4" x2="23.99" y2="11.255"/>
<polygon points="20,13 23,7 26,12.507 "/>
</svg>
