<?xml version="1.0" encoding="iso-8859-1"?>
<!-- Generator: Adobe Illustrator 21.1.0, SVG Export Plug-In . SVG Version: 6.00 Build 0)  -->
<svg version="1.1" id="Layer_1" xmlns="http://www.w3.org/2000/svg" xmlns:xlink="http://www.w3.org/1999/xlink" x="0px" y="0px"
	 viewBox="0 0 30 30" style="enable-background:new 0 0 30 30;" xml:space="preserve">
<path d="M24,4l-1.127-0.992L9.858,5.009L9,6c0,0,0,9.894,0,13.21C9,20.399,8.863,21,6.503,21C3.897,21,3,22.521,3,24.008
	c0,1.209,0.706,3,3.5,3c3.129,0,4.5-1.918,4.5-3.616c0-1,0-12.952,0-12.952l11-1.793v8.564c0,1.189-0.137,1.79-2.497,1.79
	C16.897,19,16,20.521,16,22.008c0,1.209,0.706,3,3.5,3c3.129,0,4.5-2.106,4.5-3.804C24,20.204,24,4,24,4z"/>
<circle cx="23" cy="4" r="1"/>
<circle cx="10" cy="6" r="1"/>
</svg>
