<?xml version="1.0" encoding="iso-8859-1"?>
<!-- Generator: Adobe Illustrator 21.1.0, SVG Export Plug-In . SVG Version: 6.00 Build 0)  -->
<svg version="1.1" id="Layer_1" xmlns="http://www.w3.org/2000/svg" xmlns:xlink="http://www.w3.org/1999/xlink" x="0px" y="0px"
	 viewBox="0 0 30 30" style="enable-background:new 0 0 30 30;" xml:space="preserve">
<rect x="5" y="5" width="4" height="2"/>
<g>
	<circle cx="19" cy="15" r="4"/>
	<path d="M26,6H4C2.895,6,2,6.895,2,8v14c0,1.105,0.895,2,2,2h22c1.105,0,2-0.895,2-2V8C28,6.895,27.105,6,26,6z M9,12H7
		c-0.552,0-1-0.448-1-1c0-0.552,0.448-1,1-1h2c0.552,0,1,0.448,1,1C10,11.552,9.552,12,9,12z M19,21c-3.314,0-6-2.687-6-6
		c0-3.314,2.686-6,6-6s6,2.686,6,6C25,18.313,22.314,21,19,21z"/>
</g>
</svg>
